<ttFont>
          <CharString index="0">
            rmoveto
            204 -8 58 -122 -141 -5 -65 -199 -210 20 -52 128 -25 callsubr
            vhcurveto
            -101 callgsubr
            return
          </CharString>
          <CharString index="1">
            -100 callgsubr
            endchar
          </CharString>
          <CharString index="2">
            63 108 -28 callsubr
            return
          </CharString>
          <CharString index="3">
            -191 -7 -47 -109 -110 -7 47 191 vhcurveto
            424 -36 -394 vlineto
            -240 12 -62 141 140 12 62 240 vhcurveto
            return
          </CharString>
          <CharString index="4">
            -123 0 -99 -105 -80 -15 23 148 vhcurveto
            315 -35 -320 vlineto
            -146 16 -52 105 80 24 40 43 10 vhcurveto
            4 hlineto
            return
          </CharString>
          <CharString index="5">
            -122 39 -24 85 vhcurveto
            32 vmoveto
            -72 -17 21 93 -11 callsubr
            hvcurveto
            43 callsubr
            -56 -16 -42 -4 -42 hhcurveto
            return
          </CharString>
          <CharString index="6">
            rmoveto
            134 10 78 118 58 0 35 -7 19 hvcurveto
            -15 45 -29 12 -47 9 -96 19 rcurveline
            -48 9 -8 13 106 vvcurveto
            44 3 37 16 28 vhcurveto
            26 15 29 14 57 hhcurveto
            34 46 -5 -7 29 hvcurveto
            33 vlineto
            8 -22 -48 5 -47 hhcurveto
            -116 -32 -65 -116 -94 0 -56 69 -13 hvcurveto
            106 -20 rlineto
            73 -14 2 -9 -126 vvcurveto
            -60 -3 -47 -22 -21 vhcurveto
            -22 -22 -28 -7 -45 hhcurveto
            -31 -52 6 7 -35 hvcurveto
            -35 vlineto
            -7 35 54 -5 41 hhcurveto
            return
          </CharString>
          <CharString index="7">
            rmoveto
            -99 callsubr
            return
          </CharString>
          <CharString index="8">
            23 hlineto
            50 133 rlineto
            -90 callgsubr
            return
          </CharString>
          <CharString index="9">
            37 hlineto
            -160 688 rlineto
            -41 hlineto
            -160 -688 rlineto
            36 hlineto
            49 217 rlineto
            189 hlineto
            return
          </CharString>
          <CharString index="10">
            -4 -75 rlineto
            -4 hlineto
            73 -17 -46 10 -48 54 callgsubr
            -214 22 -49 113 59 34 20 54 14 hvcurveto
            4 -4 hlineto
            -178 -15 -48 -115 -38 -45 2 2 148 callgsubr
            -2 38 41 -1 33 hhcurveto
            22 220 -26 callsubr
            92 53 31 -23 -65 13 hvcurveto
            7 -36 1 -47 -60 vvcurveto
            -62 -2 -47 -8 -41 vhcurveto
            -57 -12 -30 -24 -53 hhcurveto
            endchar
          </CharString>
          <CharString index="11">
            743 rmoveto
            29 hlineto
            18 2 3 37 12 vhcurveto
            9 3 rlineto
            -106 callgsubr
            return
          </CharString>
          <CharString index="12">
            rmoveto
            -98 callsubr
            return
          </CharString>
          <CharString index="13">
            -27 hlineto
            -45 -3 -17 -18 -18 -20 11 12 -20 vhcurveto
            return
          </CharString>
          <CharString index="14">
            rmoveto
            -3 103 -25 27 -49 15 rrcurveto
            4 vlineto
            54 16 27 43 123 vvcurveto
            123 -25 63 -109 vhcurveto
            -156 -688 36 298 119 hlineto
            91 3 -76 -70 3 hvcurveto
            6 -152 rlineto
            35 hlineto
            -139 332 rmoveto
            -118 322 118 hlineto
            95 5 -66 -95 -93 -13 -68 -87 hvcurveto
            return
          </CharString>
          <CharString index="15">
            -14 24 22 -12 23 hhcurveto
            39 9 25 70 hvcurveto
            return
          </CharString>
          <CharString index="16">
            -86 303 rlineto
            71 26 5 78 84 vvcurveto
            103 -4 94 -132 vhcurveto
            -154 -688 36 294 118 hlineto
            9 8 0 1 8 hvcurveto
            83 -295 rlineto
            -109 328 rmoveto
            -117 326 117 hlineto
            95 6 -63 -100 -100 -7 -63 -94 hvcurveto
            return
          </CharString>
          <CharString index="17">
            256 34 -219 297 191 34 -191 289 219 34 -256 hlineto
            return
          </CharString>
          <CharString index="18">
            rmoveto
            -94 callsubr
            return
          </CharString>
          <CharString index="19">
            -21 vlineto
            57 13 19 72 hvcurveto
            75 -46 -65 20 -17 vlineto
            -49 -2 -14 -42 vhcurveto
            return
          </CharString>
          <CharString index="20">
            -92 400 rmoveto
            84 -366 rlineto
            -173 hlineto
            84 366 rlineto
            return
          </CharString>
          <CharString index="21">
            rmoveto
            72 9 21 64 64 -9 22 -72 -72 -8 -22 -64 -64 8 -21 72 hvcurveto
            28 vmoveto
            -43 -4 12 45 45 4 13 43 43 5 -13 -45 -45 -5 -12 -43 hvcurveto
            return
          </CharString>
          <CharString index="22">
            rmoveto
            -52 callgsubr
            vhcurveto
            -11 -3 rlineto
            -67 callsubr
            -8 29 vlineto
            -77 callsubr
            hvcurveto
            return
          </CharString>
          <CharString index="23">
            rmoveto
            34 vlineto
            -6 -20 -33 -4 -24 hhcurveto
            -118 -12 35 283 283 12 35 118 23 31 -4 -6 21 hvcurveto
            32 vlineto
            7 -19 -35 5 -27 hhcurveto
            -137 -23 -48 -304 -308 23 -44 137 27 34 4 6 22 hvcurveto
            endchar
          </CharString>
          <CharString index="24">
            rmoveto
            33 vlineto
            -8 -21 -36 -5 -28 hhcurveto
            -92 -15 37 195 187 15 43 90 26 34 -5 -7 24 hvcurveto
            33 vlineto
            6 -21 -38 5 -29 hhcurveto
            -110 -26 -52 -212 -191 11 -71 128 30 37 5 7 21 hvcurveto
            endchar
          </CharString>
          <CharString index="25">
            18 2 3 37 12 vhcurveto
            9 3 rlineto
            return
          </CharString>
          <CharString index="26">
            36 281 hlineto
            150 407 rlineto
            -36 hlineto
            -128 -354 rlineto
            -5 hlineto
            -128 354 rlineto
            -38 hlineto
            149 -407 rlineto
            return
          </CharString>
          <CharString index="27">
            133 rlineto
            return
          </CharString>
          <CharString index="28">
            -76 callgsubr
            endchar
          </CharString>
          <CharString index="29">
            -91 callgsubr
            123 return
          </CharString>
          <CharString index="30">
            -82 callsubr
            38 13 0 21 31 vvcurveto
            40 -11 21 -75 -19 -30 -3 -3 -28 vhcurveto
            -26 vlineto
            2 30 27 2 15 hhcurveto
            -29 callsubr
            return
          </CharString>
          <CharString index="31">
            41 hlineto
            106 510 rlineto
            -35 hlineto
            -87 -448 rlineto
            -4 hlineto
            -82 448 rlineto
            -44 hlineto
            -80 -448 rlineto
            -4 hlineto
            -88 448 rlineto
            -37 hlineto
            106 -510 rlineto
            41 hlineto
            82 445 rlineto
            4 hlineto
            endchar
          </CharString>
          <CharString index="32">
            27 -8 -65 callgsubr
            return
          </CharString>
          <CharString index="33">
            605 -100 callsubr
            return
          </CharString>
          <CharString index="34">
            -133 rlineto
            return
          </CharString>
          <CharString index="35">
            -58 callgsubr
            10 callsubr
            return
          </CharString>
          <CharString index="36">
            292 34 -252 hlineto
            247 622 rlineto
            32 -280 -34 241 vlineto
            -248 -622 rlineto
            return
          </CharString>
          <CharString index="37">
            rmoveto
            -103 callgsubr
            52 -50 callgsubr
            return
          </CharString>
          <CharString index="38">
            43 54 7 76 17 hvcurveto
            4 hlineto
            return
          </CharString>
          <CharString index="39">
            rmoveto
            201 -8 57 -122 -71 -37 -19 -47 -19 vhcurveto
            51 -18 -36 15 -66 hhcurveto
            -47 -43 -6 -6 -26 hvcurveto
            -33 vlineto
            6 26 50 7 32 hhcurveto
            93 16 -18 -144 hvcurveto
            -45 -126 vlineto
            -87 -25 -33 -108 -122 39 -24 85 48 57 7 84 22 hvcurveto
            -70 18 39 -21 78 hhcurveto
            1 callsubr
            43 180 hvcurveto
            241 hlineto
            -132 239 rmoveto
            76 21 -19 -171 hvcurveto
            -17 -206 vlineto
            180 11 27 98 vhcurveto
            -144 -276 rmoveto
            -50 -3 -36 -10 -37 vhcurveto
            -59 -17 -42 -4 -42 hhcurveto
            -72 -17 21 93 95 17 14 66 hvcurveto
            120 hlineto
            endchar
          </CharString>
          <CharString index="40">
            -23 -7 -12 -6 -28 vvcurveto
            return
          </CharString>
          <CharString index="41">
            rmoveto
            -69 callsubr
            return
          </CharString>
          <CharString index="42">
            880 -63 callgsubr
            return
          </CharString>
          <CharString index="43">
            23 hlineto
            30 0 callgsubr
            -13 -73 callsubr
            return
          </CharString>
          <CharString index="44">
            888 rmoveto
            -103 callgsubr
            return
          </CharString>
          <CharString index="45">
            6 -20 -25 2 -30 hhcurveto
            -146 -18 -48 -304 -304 18 -48 146 146 18 48 304 hvcurveto
            return
          </CharString>
          <CharString index="46">
            rmoveto
            -44 callgsubr
            -5 27 vlineto
            return
          </CharString>
          <CharString index="47">
            rmoveto
            66 30 5 92 hvcurveto
            603 -35 -613 vlineto
            -45 -5 -12 -56 vhcurveto
            endchar
          </CharString>
          <CharString index="48">
            19 0 34 297 -17 callgsubr
            return
          </CharString>
          <CharString index="49">
            rmoveto
            -34 vlineto
            101 3 6 12 209 vvcurveto
            464 -36 -462 vlineto
            -185 -1 -3 -70 -4 vhcurveto
            endchar
          </CharString>
          <CharString index="50">
            15 26 17 19 14 rrcurveto
            30 21 13 22 60 vvcurveto
            84 -31 10 -45 -21 -31 -3 -5 -24 vhcurveto
            -29 vlineto
            4 28 29 3 16 hhcurveto
            37 11 -15 -54 -36 -5 -19 -20 -15 hvcurveto
            -19 -13 -26 -19 -23 -17 rrcurveto
            -31 -23 -1 -17 -81 vvcurveto
            -39 156 return
          </CharString>
          <CharString index="51">
            123 0 99 105 80 15 -23 -148 vhcurveto
            return
          </CharString>
          <CharString index="52">
            106 0 34 628 34 hstemhm
            55 36 -34 139 46 139 -34 36 hintmask 00000000
            hintmask 11010100
            57 hmoveto
            139 29 hlineto
            hintmask 11100100
            -96 25 -9 65 239 vvcurveto
            273 11 31 117 117 11 -31 -273 -240 -9 -64 -96 -25 vhcurveto
            hintmask 11101000
            -29 139 34 -3 vlineto
            -71 -8 rlineto
            6 vlineto
            hintmask 11100100
            70 33 6 106 187 vvcurveto
            273 -10 65 -154 -154 -10 -65 -273 -187 6 -106 70 -33 vhcurveto
            -6 vlineto
            hintmask 11010100
            -71 8 rlineto
            -3 hlineto
            endchar
          </CharString>
          <CharString index="53">
            88 callsubr
            -23 -41 -42 -10 vhcurveto
            -4 hlineto
            return
          </CharString>
          <CharString index="54">
            rmoveto
            -27 vlineto
            -5 21 31 -3 22 hhcurveto
            76 17 32 87 70 -10 36 -74 -19 -20 -2 -3 -11 hvcurveto
            133 116 29 -146 -193 vlineto
            5 24 24 2 13 hhcurveto
            60 12 -10 -72 -65 -11 -20 -55 -17 -29 2 4 -24 hvcurveto
            return
          </CharString>
          <CharString index="55">
            35 478 81 32 -81 121 hlineto
            68 18 14 63 vhcurveto
            30 vlineto
            -76 -40 -12 -106 hvcurveto
            -115 -65 -32 65 vlineto
            return
          </CharString>
          <CharString index="56">
            -92 -14 29 202 202 14 29 return
          </CharString>
          <CharString index="57">
            -181 vmoveto
            -49 -15 12 64 66 12 11 52 52 12 -11 -66 -64 -15 -12 -49 hvcurveto
            endchar
          </CharString>
          <CharString index="58">
            -595 -4 vlineto
            -222 595 rlineto
            -43 -688 35 hlineto
            return
          </CharString>
          <CharString index="59">
            rmoveto
            165 36 -165 hlineto
            return
          </CharString>
          <CharString index="60">
            6 -18 -23 2 -29 -18 callgsubr
            130 13 45 217 hvcurveto
            return
          </CharString>
          <CharString index="61">
            -8 rmoveto
            hintmask 11110100
            128 23 71 121 112 -32 42 -47 12 hvcurveto
            4 vlineto
            hintmask 11111000
            47 15 27 46 100 vvcurveto
            129 -34 52 -112 -34 -47 -6 -8 -33 vhcurveto
            -32 vlineto
            7 32 46 5 30 hhcurveto
            79 37 -22 -127 -120 -43 -27 -38 hvcurveto
            -74 -34 hlineto
            hintmask 11110100
            74 hlineto
            62 24 -45 -110 -129 -43 -22 -72 -28 -48 5 7 -41 hvcurveto
            -32 vlineto
            hintmask 11101000
            -8 34 48 -6 35 hhcurveto
            endchar
          </CharString>
          <CharString index="62">
            209 vmoveto
            -50 -11 15 59 59 10 16 51 51 10 -16 -59 -59 -11 -15 -50 hvcurveto
            return
          </CharString>
          <CharString index="63">
            36 -67 callgsubr
            -38 hlineto
            hintmask 10111100
            -62 callsubr
            hintmask 11011100
            53 callgsubr
            hintmask 11011010
            28 callgsubr
            hintmask 10111100
            -68 callgsubr
            endchar
          </CharString>
          <CharString index="64">
            109 19 -15 -295 -295 66 callsubr
            return
          </CharString>
          <CharString index="65">
            rmoveto
            5 vlineto
            -33 133 -24 callsubr
            50 -73 callsubr
            return
          </CharString>
          <CharString index="66">
            54 -38 callsubr
            return
          </CharString>
          <CharString index="67">
            rmoveto
            52 27 16 42 15 hvcurveto
            9 26 1 47 66 vvcurveto
            63 -1 43 -6 24 vhcurveto
            47 -11 -24 12 -54 hhcurveto
            -74 -14 -29 -93 -94 22 -11 62 45 14 14 14 8 hvcurveto
            2 hlineto
            -133 -8 -25 -70 -18 -26 2 4 -18 vhcurveto
            -27 vlineto
            -5 19 28 -3 20 hhcurveto
            11 188 rmoveto
            -51 -9 5 81 73 11 10 49 48 13 -13 -87 -52 -5 -17 -56 hvcurveto
            endchar
          </CharString>
          <CharString index="68">
            111 callgsubr
            -510 35 264 hlineto
            return
          </CharString>
          <CharString index="69">
            -8 32 -3 132 callgsubr
            return
          </CharString>
          <CharString index="70">
            35 vstem
            153 -8 -96 callgsubr
            return
          </CharString>
          <CharString index="71">
            rmoveto
            53 4 7 25 56 vvcurveto
            64 -9 22 -72 -72 -8 -22 -64 -57 5 -23 54 -5 vhcurveto
            -159 -687 rlineto
            36 hlineto
            49 217 rlineto
            189 hlineto
            50 -217 rlineto
            37 hlineto
            -228 772 rmoveto
            45 4 13 43 43 5 -13 -45 -45 -5 -12 -43 -43 -4 12 45 vhcurveto
            -40 -521 rmoveto
            84 366 rlineto
            5 hlineto
            84 -366 rlineto
            endchar
          </CharString>
          <CharString index="72">
            -24 callgsubr
            34 return
          </CharString>
          <CharString index="73">
            36 vstem
            351 171 -93 callsubr
            return
          </CharString>
          <CharString index="74">
            rmoveto
            33 0 18 5 11 vhcurveto
            3 8 4 5 9 5 25 14 24 18 23 15 rrcurveto
            31 20 12 19 63 vvcurveto
            85 -35 8 -47 -27 -34 -3 -5 -19 vhcurveto
            -27 vlineto
            4 24 31 2 19 hhcurveto
            45 12 -11 -58 -39 -4 -17 -24 -16 hvcurveto
            -68 -44 rlineto
            -40 -25 0 -18 -84 vvcurveto
            -41 167 29 -136 vlineto
            endchar
          </CharString>
          <CharString index="75">
            21 -7 callsubr
            return
          </CharString>
          <CharString index="76">
            -16 callgsubr
            37 callgsubr
            hvcurveto
            -128 hlineto
            362 -688 rmoveto
            -71 callsubr
            -326 2 -49 callgsubr
            endchar
          </CharString>
          <CharString index="77">
            93 -8 34 662 -20 return
          </CharString>
          <CharString index="78">
            59 2 -9 -29 return
          </CharString>
          <CharString index="79">
            63 -108 rlineto
            27 5 hlineto
            -67 -80 callsubr
            -46 hlineto
            return
          </CharString>
          <CharString index="80">
            743 -89 callsubr
            return
          </CharString>
          <CharString index="81">
            rmoveto
            -51 callsubr
            return
          </CharString>
          <CharString index="82">
            42 49 6 7 25 return
          </CharString>
          <CharString index="83">
            rlineto
            -40 -5 hlineto
            return
          </CharString>
          <CharString index="84">
            36 vstem
            365 hmoveto
            -91 callsubr
            return
          </CharString>
          <CharString index="85">
            rmoveto
            29 hlineto
            -82 callsubr
            return
          </CharString>
          <CharString index="86">
            54 callsubr
            211 32 return
          </CharString>
          <CharString index="87">
            rmoveto
            -7 callgsubr
            return
          </CharString>
          <CharString index="88">
            -8 67 callgsubr
            return
          </CharString>
          <CharString index="89">
            rmoveto
            32 51 rlineto
            -48 31 -33 53 62 vvcurveto
            61 33 54 49 31 vhcurveto
            -32 51 rlineto
            -66 -41 -44 -73 -83 vvcurveto
            -83 44 -73 65 -41 vhcurveto
            return
          </CharString>
          <CharString index="90">
            191 34 -159 hlineto
            -46 297 rlineto
            177 34 -182 hlineto
            -44 289 rlineto
            254 34 -300 hlineto
            -215 -688 rlineto
            36 hlineto
            67 217 rlineto
            188 hlineto
            -59 400 rmoveto
            54 -366 rlineto
            -173 hlineto
            114 366 rlineto
            endchar
          </CharString>
          <CharString index="91">
            -20 callsubr
            endchar
          </CharString>
          <CharString index="92">
            rmoveto
            -20 callgsubr
            return
          </CharString>
          <CharString index="93">
            61 14 19 72 hvcurveto
            return
          </CharString>
          <CharString index="94">
            29 9 16 25 55 vvcurveto
            71 -22 28 -68 -22 -30 -3 -5 -20 vhcurveto
            -27 vlineto
            4 20 27 2 18 hhcurveto
            46 20 -10 -64 return
          </CharString>
          <CharString index="95">
            -8 rmoveto
            136 13 49 303 303 -3 49 -146 -136 -13 -49 -303 -303 13 -49 136 hvcurveto
            return
          </CharString>
          <CharString index="96">
            98 17 15 66 return
          </CharString>
          <CharString index="97">
            31 hlineto
            270 688 rlineto
            -31 hlineto
            return
          </CharString>
          <CharString index="98">
            rmoveto
            57 1 -38 -75 hvcurveto
            33 hlineto
            82 0 59 -91 -91 -1 -59 -82 vhcurveto
            -20 callgsubr
            vhcurveto
            hintmask 11111001
            return
          </CharString>
          <CharString index="99">
            44 -19 callsubr
            return
          </CharString>
          <CharString index="100">
            -21 688 -20 return
          </CharString>
          <CharString index="101">
            -8 -5 callgsubr
            return
          </CharString>
          <CharString index="102">
            rmoveto
            -3 callsubr
          </CharString>
          <CharString index="103">
            rmoveto
            85 7 30 163 163 -2 30 -90 -85 -7 -30 -163 -163 7 -30 85 hvcurveto
            29 vmoveto
            -55 -6 8 156 156 6 8 55 55 6 -8 -156 -156 -6 -8 -55 hvcurveto
            endchar
          </CharString>
          <CharString index="104">
            40 callsubr
            endchar
          </CharString>
          <CharString index="105">
            69 0 34 583 71 0 -20 hstemhm
            20 361 hintmask 10110000
            20 hmoveto
            361 hlineto
            -160 688 rlineto
            -41 hlineto
            hintmask 11010000
            23 -71 rmoveto
            133 -583 rlineto
            -272 hlineto
            134 583 rlineto
            endchar
          </CharString>
          <CharString index="106">
            hstem
            26 callgsubr
            return
          </CharString>
          <CharString index="107">
            149 callgsubr
            -35 callgsubr
            return
          </CharString>
          <CharString index="108">
            -25 callsubr
            hvcurveto
            -73 callgsubr
            return
          </CharString>
          <CharString index="109">
            78 -8 34 callgsubr
            return
          </CharString>
          <CharString index="110">
            -20 hstem
            181 34 vstem
            198 -85 rmoveto
            112 255 -95 -43 rlineto
            356 vlineto
            95 -42 -112 255 -113 -255 96 42 rlineto
            -356 vlineto
            -96 43 rlineto
            return
          </CharString>
          <CharString index="111">
            50 hmoveto
            -10 callsubr
            -227 -370 rmoveto
            31 370 -24 hlineto
            return
          </CharString>
          <CharString index="112">
            -11 callsubr
            vhcurveto
            43 callsubr
            return
          </CharString>
          <CharString index="113">
            vstem
            65 hmoveto
            232 34 -195 654 -37 hlineto
            return
          </CharString>
          <CharString index="114">
            -14 callsubr
            35 return
          </CharString>
          <CharString index="115">
            16 callsubr
            hlineto
            return
          </CharString>
          <CharString index="116">
            hstemhm
            60 36 25 104 callgsubr
            return
          </CharString>
          <CharString index="117">
            hintmask 1111110100000000
            -92 callsubr
            return
          </CharString>
          <CharString index="118">
            30 0 -82 callgsubr
            return
          </CharString>
          <CharString index="119">
            -618 -66 callsubr
            return
          </CharString>
          <CharString index="120">
            -177 65 callsubr
            return
          </CharString>
          <CharString index="121">
            vstem
            332 hmoveto
            39 hlineto
            -155 349 153 339 rlineto
            -38 hlineto
            -146 -322 rlineto
            -84 322 -36 -688 36 332 84 hlineto
            return
          </CharString>
          <CharString index="122">
            45 hlineto
            35 14 -21 -57 -64 -23 -10 -43 -17 -29 2 4 -24 hvcurveto
            -27 vlineto
            return
          </CharString>
          <CharString index="123">
            -67 callgsubr
            -41 return
          </CharString>
          <CharString index="124">
            rmoveto
            32 51 rlineto
            -14 9 -10 16 20 vvcurveto
            20 10 16 15 9 vhcurveto
            -32 51 rlineto
            -32 -20 -21 -35 -41 vvcurveto
            -42 21 -34 31 -20 vhcurveto
            return
          </CharString>
          <CharString index="125">
            814 rmoveto
            41 61 -41 hlineto
            return
          </CharString>
          <CharString index="126">
            hstem
            65 36 218 36 vstem
            return
          </CharString>
          <CharString index="127">
            -75 callsubr
            84 28 148 138 87 callsubr
            hintmask 1011110101000000
            return
          </CharString>
          <CharString index="128">
            54 21 -21 486 32 return
          </CharString>
          <CharString index="129">
            32 vmoveto
            -108 0 46 184 195 0 37 108 108 0 -77 -155 -184 0 -46 -108 hvcurveto
            endchar
          </CharString>
          <CharString index="130">
            39 -21 83 hhcurveto
            -5 34 rmoveto
            -89 -25 30 172 98 10 37 104 94 18 -10 -162 -141 -21 -24 -91 hvcurveto
            endchar
          </CharString>
          <CharString index="131">
            44 73 callgsubr
            216 35 vstem
            return
          </CharString>
          <CharString index="132">
            30 0 138 hstemhm
            return
          </CharString>
          <CharString index="133">
            13 8 rlineto
            32 21 19 11 75 vvcurveto
            87 -36 -85 vlineto
            -41 -4 -18 -34 -21 vhcurveto
            -31 -19 rlineto
            -52 -32 -1 -76 -72 vvcurveto
            return
          </CharString>
          <CharString index="134">
            20 -17 hlineto
            -49 -2 -14 -42 vhcurveto
            return
          </CharString>
          <CharString index="135">
            31 -29 32 122 32 -29 31 return
          </CharString>
          <CharString index="136">
            60 -190 rmoveto
            35 256 4 hlineto
            -54 14 34 -20 59 hhcurveto
            113 22 49 214 214 -23 49 -112 return
          </CharString>
          <CharString index="137">
            856 -89 callsubr
            return
          </CharString>
          <CharString index="138">
            -751 -66 callsubr
            return
          </CharString>
          <CharString index="139">
            207 0 79 530 79 0 -20 return
          </CharString>
          <CharString index="140">
            hstem
            45 35 206 35 vstem
            return
          </CharString>
          <CharString index="141">
            -17 callgsubr
            313 34 return
          </CharString>
          <CharString index="142">
            82 callgsubr
            vstem
            return
          </CharString>
          <CharString index="143">
            hstemhm
            41 callgsubr
            return
          </CharString>
          <CharString index="144">
            -2 35 42 -1 31 hhcurveto
            return
          </CharString>
          <CharString index="145">
            vmoveto
            -137 -10 28 298 298 10 28 137 137 10 -28 -298 -298 -10 -28 -137 hvcurveto
            return
          </CharString>
          <CharString index="146">
            vmoveto
            43 callgsubr
          </CharString>
          <CharString index="147">
            122 callsubr
            hlineto
            return
          </CharString>
          <CharString index="148">
            rmoveto
            340 155 rlineto
            44 vlineto
            -340 155 rlineto
            -37 vlineto
            306 -140 -306 -140 rlineto
            return
          </CharString>
          <CharString index="149">
            397 rmoveto
            81 6 31 118 118 -6 32 -81 -82 -6 -32 -118 -118 6 -31 82 hvcurveto
            return
          </CharString>
          <CharString index="150">
            120 -41 hlineto
            -50 -3 -36 -11 -40 vhcurveto
            return
          </CharString>
          <CharString index="151">
            41 129 41 return
          </CharString>
          <CharString index="152">
            713 -61 callsubr
            return
          </CharString>
          <CharString index="153">
            743 -61 callgsubr
            return
          </CharString>
          <CharString index="154">
            hstemhm
            56 35 -4 44 callsubr
            -7 35 hintmask 1011110010000000
            return
          </CharString>
          <CharString index="155">
            rmoveto
            -41 -61 41 hlineto
            170 61 rmoveto
            -41 -61 41 hlineto
            return
          </CharString>
          <CharString index="156">
            82 callsubr
            hintmask 10111110
            return
          </CharString>
          <CharString index="157">
            -21 74 callsubr
            return
          </CharString>
          <CharString index="158">
            -49 -34 rlineto
            -31 vlineto
            42 23 rlineto
            return
          </CharString>
          <CharString index="159">
            -102 21 -21 482 36 -8 -20 return
          </CharString>
          <CharString index="160">
            rmoveto
            340 32 -340 hlineto
            return
          </CharString>
          <CharString index="161">
            32 219 32 return
          </CharString>
          <CharString index="162">
            vmoveto
            -98 callgsubr
            return
          </CharString>
          <CharString index="163">
            -4 -150 rlineto
            -96 hlineto
            90 257 rlineto
            -32 hlineto
            -90 -260 rlineto
            -26 128 vlineto
            endchar
          </CharString>
          <CharString index="164">
            35 -11 callgsubr
            return
          </CharString>
          <CharString index="165">
            rmoveto
            37 vlineto
            -306 140 306 140 rlineto
            37 vlineto
            -340 -155 rlineto
            -44 vlineto
            return
          </CharString>
          <CharString index="166">
            -38 -8 7 131 131 8 8 38 38 8 -8 -131 -131 -8 -7 -38 hvcurveto
            return
          </CharString>
          <CharString index="167">
            rmoveto
            29 hlineto
            83 205 -83 206 rlineto
            -29 hlineto
            return
          </CharString>
          <CharString index="168">
            74 12 40 68 51 -16 26 -29 11 hvcurveto
            4 vlineto
            return
          </CharString>
          <CharString index="169">
            84 callsubr
            138 hstem
            return
          </CharString>
          <CharString index="170">
            rmoveto
            -21 vlineto
            57 13 19 72 hvcurveto
            75 return
          </CharString>
          <CharString index="171">
            30 35 203 35 return
          </CharString>
          <CharString index="172">
            21 132 callgsubr
            return
          </CharString>
          <CharString index="173">
            -19 -15 -109 hvcurveto
            return
          </CharString>
          <CharString index="174">
            146 callsubr
            119 36 callsubr
            hintmask 10111100
            return
          </CharString>
          <CharString index="175">
            rmoveto
            31 154 155 32 -155 154 -31 -154 -154 -32 154 hlineto
            return
          </CharString>
          <CharString index="176">
            rmoveto
            65 45 45 65 65 -45 45 -65 -65 -45 -45 -65 -65 45 -45 65 hvcurveto
            60 vmoveto
            return
          </CharString>
          <CharString index="177">
            -88 callsubr
            endchar
          </CharString>
          <CharString index="178">
            743 -85 callgsubr
            -99 -271 rmoveto
            27 hlineto
            return
          </CharString>
          <CharString index="179">
            75 callgsubr
            203 30 hstem
            85 35 return
          </CharString>
          <CharString index="180">
            169 0 62 383 65 return
          </CharString>
          <CharString index="181">
            -4 callgsubr
            115 138 return
          </CharString>
          <CharString index="182">
            104 callsubr
            62 138 -1 callsubr
            50 31 vstem
            return
          </CharString>
          <CharString index="183">
            -190 rmoveto
            40 hlineto
            44 193 rlineto
            5 -26 vlineto
            -58 -193 rlineto
            endchar
          </CharString>
          <CharString index="184">
            138 hstemhm
            38 callgsubr
            return
          </CharString>
          <CharString index="185">
            29 hstem
            31 31 122 31 vstem
            return
          </CharString>
          <CharString index="186">
            35 320 hlineto
            85 callgsubr
            return
          </CharString>
          <CharString index="187">
            21 -21 696 -20 hstem
            return
          </CharString>
          <CharString index="188">
            -19 callsubr
            87 return
          </CharString>
          <CharString index="189">
            hstemhm
            64 callsubr
            return
          </CharString>
          <CharString index="190">
            30 78 -29 callgsubr
            return
          </CharString>
          <CharString index="191">
            -35 callsubr
            54 return
          </CharString>
          <CharString index="192">
            293 95 callgsubr
            return
          </CharString>
          <CharString index="193">
            306 -27 callsubr
            return
          </CharString>
          <CharString index="194">
            hstemhm
            30 35 23 -40 callgsubr
            -3 35 return
          </CharString>
          <CharString index="195">
            98 callsubr
            -81 return
          </CharString>
          <CharString index="196">
            0 65 623 -20 hstemhm
            58 44 -41 38 return
          </CharString>
          <CharString index="197">
            45 141 callsubr
            return
          </CharString>
          <CharString index="198">
            -29 callgsubr
            30 35 1 -15 callgsubr
            -25 57 callsubr
            return
          </CharString>
          <CharString index="199">
            32 93 -82 callgsubr
            45 35 return
          </CharString>
          <CharString index="200">
            -56 -16 -42 -4 -42 hhcurveto
            endchar
          </CharString>
          <CharString index="201">
            28 hstemhm
            56 35 10 -40 callgsubr
            7 35 hintmask 00000000
            hintmask 10111110
            return
          </CharString>
          <CharString index="202">
            28 113 -82 callgsubr
            return
          </CharString>
          <CharString index="203">
            32 hstem
            0 280 vstem
            -160 vmoveto
            280 32 -280 hlineto
            return
          </CharString>
          <CharString index="204">
            53 hhcurveto
            92 14 -29 -202 -202 -14 -29 -92 hvcurveto
            endchar
          </CharString>
          <CharString index="205">
            79 callsubr
            -105 return
          </CharString>
          <CharString index="206">
            73 21 -21 294 34 326 34 return
          </CharString>
          <CharString index="207">
            30 hstem
            -180 180 vstem
            return
          </CharString>
          <CharString index="208">
            60 hmoveto
            121 callsubr
            return
          </CharString>
          <CharString index="209">
            -4 28 -3 -21 177 28 return
          </CharString>
          <CharString index="210">
            65 callgsubr
            hstem
            return
          </CharString>
          <CharString index="211">
            93 -8 34 634 28 return
          </CharString>
          <CharString index="212">
            54 -6 callsubr
            return
          </CharString>
          <CharString index="213">
            -4 99 rlineto
            -27 hlineto
            return
          </CharString>
          <CharString index="214">
            vstem
            -1 628 rmoveto
            567 60 -567 hlineto
            -688 vmoveto
            return
          </CharString>
          <CharString index="215">
            880 -22 callsubr
            return
          </CharString>
          <CharString index="216">
            0 34 620 34 62 30 hstem
            65 36 220 36 vstem
            return
          </CharString>
          <CharString index="217">
            -67 -73 callsubr
            endchar
          </CharString>
          <CharString index="218">
            rmoveto
            77 16 37 68 61 -19 23 -29 7 hvcurveto
            2 vlineto
            return
          </CharString>
          <CharString index="219">
            188 -8 rmoveto
            141 2 59 228 39 -1 37 return
          </CharString>
          <CharString index="220">
            -8 callsubr
            35 callsubr
            return
          </CharString>
          <CharString index="221">
            -117 31 callsubr
            return
          </CharString>
          <CharString index="222">
            923 -85 callgsubr
            return
          </CharString>
          <CharString index="223">
            -8 34 305 34 297 34 return
          </CharString>
          <CharString index="224">
            54 139 callgsubr
            return
          </CharString>
          <CharString index="225">
            30 -3 callgsubr
            return
          </CharString>
          <CharString index="226">
            205 -145 143 -207 return
          </CharString>
          <CharString index="227">
            103 callgsubr
            3 27 return
          </CharString>
          <CharString index="228">
            35 743 -35 hlineto
            return
          </CharString>
          <CharString index="229">
            36 688 -36 return
          </CharString>
          <CharString index="230">
            595 4 vlineto
            return
          </CharString>
          <CharString index="231">
            -41 133 callsubr
            return
          </CharString>
          <CharString index="232">
            64 12 callsubr
            return
          </CharString>
          <CharString index="233">
            -41 callgsubr
            195 30 return
          </CharString>
          <CharString index="234">
            hmoveto
            36 176 65 34 -65 300 -35 -300 return
          </CharString>
          <CharString index="235">
            24 -19 -29 12 -41 hhcurveto
            -135 -8 -47 -217 return
          </CharString>
          <CharString index="236">
            hstemhm
            141 callgsubr
            return
          </CharString>
          <CharString index="237">
            -21 486 32 -8 -20 return
          </CharString>
          <CharString index="238">
            21 -21 654 34 hstem
            return
          </CharString>
          <CharString index="239">
            34 654 -20 return
          </CharString>
          <CharString index="240">
            vvcurveto
            -41 21 -31 55 9 4 0 1 9 vhcurveto
            return
          </CharString>
          <CharString index="241">
            hlineto
            29 212 rlineto
            -34 hlineto
            -30 -212 rlineto
            return
          </CharString>
          <CharString index="242">
            -137 -161 904 hstem
            80 35 vstem
            80 return
          </CharString>
          <CharString index="243">
            hstem
            35 36 214 36 vstem
            return
          </CharString>
          <CharString index="244">
            82 6 rlineto
            24 vlineto
            -82 6 return
          </CharString>
          <CharString index="245">
            445 -76 callgsubr
            return
          </CharString>
          <CharString index="246">
            rmoveto
            -165 -36 165 hlineto
            return
          </CharString>
          <CharString index="247">
            60 91 callgsubr
            return
          </CharString>
          <CharString index="248">
            35 216 35 return
          </CharString>
          <CharString index="249">
            36 -32 36 228 36 -32 36 hintmask 11110010
            return
          </CharString>
          <CharString index="250">
            150 10 12 43 43 10 -12 -150 return
          </CharString>
          <CharString index="251">
            34 636 34 162 30 hstem
            50 36 return
          </CharString>
          <CharString index="252">
            888 rmoveto
            -33 hlineto
            -75 -1 -38 -58 vhcurveto
            return
          </CharString>
          <CharString index="253">
            -41 callsubr
            121 return
          </CharString>
          <CharString index="254">
            31 -11 callgsubr
            return
          </CharString>
          <CharString index="255">
            34 298 34 return
          </CharString>
        <CharString name=".notdef">
          168 0 50 49 70 383 50 48 50 hstemhm
          0 50 49 53 73 60 -56 53 57 54 57 50 hintmask 1111110111000000
          0 vmoveto
          500 700 -500 hlineto
          450 -50 rmoveto
          -600 -400 600 vlineto
          179 -435 rmoveto
          53 53 hlineto
          33 21 18 23 19 vhcurveto
          30 26 37 36 67 vvcurveto
          12 -3 123 -140 -140 -11 -124 -23 -11 2 -13 2 -7 vhcurveto
          49 28 hlineto
          23 8 77 90 77 12 -59 -28 -51 -28 -24 -28 -23 vhcurveto
          -28 -23 -26 -23 -43 vvcurveto
          hintmask 1111111011000000
          -4 -179 rmoveto
          60 70 -60 hlineto
          endchar
        </CharString>
        <CharString name="A">
          -75 callgsubr
          hstemhm
          20 361 hintmask 11011000
          344 hmoveto
          -98 callsubr
          hintmask 11101000
          -87 callsubr
          endchar
        </CharString>
        <CharString name="A.ss01">
          -70 callgsubr
          -3 callgsubr
          329 hmoveto
          -106 callsubr
        </CharString>
        <CharString name="AE">
          213 0 34 183 34 80 -17 callgsubr
          hstem
          0 515 vstem
          324 hmoveto
          -17 callsubr
        </CharString>
        <CharString name="AEacute">
          213 0 34 183 34 80 -17 callgsubr
          62 138 hstem
          0 515 vstem
          259 -80 callgsubr
          65 -755 rmoveto
          -17 callsubr
        </CharString>
        <CharString name="Aacute">
          -75 callgsubr
          82 138 100 callgsubr
          185 -80 callgsubr
          159 -755 -95 callsubr
          hintmask 11101100
          -87 callsubr
          endchar
        </CharString>
        <CharString name="Aacute.ss01">
          -70 callgsubr
          54 138 -3 callgsubr
          193 -80 callgsubr
          136 -755 rmoveto
          -106 callsubr
        </CharString>
        <CharString name="Abreve">
          -75 callgsubr
          79 28 hstemhm
          109 -40 callgsubr
          hintmask 11011110
          292 888 -70 callsubr
          hintmask 11101110
          -87 callsubr
          endchar
        </CharString>
        <CharString name="Abreve.ss01">
          -70 callgsubr
          51 47 callgsubr
          hintmask 11111111
          304 -63 callsubr
          hintmask 11111001
          25 -888 rmoveto
          -106 callsubr
        </CharString>
        <CharString name="Acircumflex">
          -75 callgsubr
          190 30 100 callgsubr
          110 750 rmoveto
          27 hlineto
          63 108 -44 callgsubr
          234 -755 -95 callsubr
          hintmask 11101100
          -87 callsubr
          endchar
        </CharString>
        <CharString name="Acircumflex.ss01">
          -70 callgsubr
          162 30 hstem
          60 36 233 22 callgsubr
          205 -755 rmoveto
          -106 callsubr
        </CharString>
        <CharString name="Adieresis">
          -75 callgsubr
          102 61 hstemhm
          95 44 callsubr
          hintmask 11011110
          95 770 -84 callgsubr
          79 -831 -95 callsubr
          hintmask 11101110
          -87 callsubr
          endchar
        </CharString>
        <CharString name="Adieresis.ss01">
          -70 callgsubr
          73 61 hstemhm
          60 36 14 44 callsubr
          8 36 hintmask 00000000
          hintmask 11111111
          110 769 -84 callgsubr
          hintmask 11111001
          49 -830 rmoveto
          -106 callsubr
        </CharString>
        <CharString name="Agrave">
          -75 callgsubr
          82 138 100 callgsubr
          193 750 -85 callgsubr
          201 -883 -95 callsubr
          hintmask 11101100
          -87 callsubr
          endchar
        </CharString>
        <CharString name="Agrave.ss01">
          -70 callgsubr
          54 138 -3 callgsubr
          208 750 -85 callgsubr
          171 -883 rmoveto
          -106 callsubr
        </CharString>
        <CharString name="Amacron">
          -75 callgsubr
          184 36 hstemhm
          118 165 hintmask 11011100
          118 852 -48 callsubr
          226 -50 callgsubr
          hintmask 11101100
          -87 callsubr
          endchar
        </CharString>
        <CharString name="Amacron.ss01">
          -70 callgsubr
          156 46 callgsubr
          -888 rmoveto
          -106 callsubr
        </CharString>
        <CharString name="Aogonek">
          69 -196 32 185 -72 callgsubr
          hstemhm
          282 34 hintmask 11101100
          316 -118 rmoveto
          39 32 53 27 26 vhcurveto
          6 hlineto
          -160 688 rlineto
          -41 hlineto
          -160 -688 rlineto
          36 hlineto
          49 217 rlineto
          189 hlineto
          49 -214 rlineto
          -35 -36 -26 -50 -41 vvcurveto
          -41 21 -31 -45 callgsubr
          -35 -12 20 26 hvcurveto
          -203 369 rmoveto
          hintmask 11110100
          84 366 rlineto
          5 hlineto
          84 -366 rlineto
          endchar
        </CharString>
        <CharString name="Aogonek.ss01">
          93 -196 32 185 -21 274 34 354 34 hstemhm
          60 36 173 34 26 36 hintmask 00000000
          hintmask 11111110
          350 -164 rmoveto
          -35 -12 20 26 39 32 53 27 26 hvcurveto
          3 3 hlineto
          1 1 rlineto
          -1 hlineto
          hintmask 11111010
          390 vlineto
          240 -12 62 -140 -141 -12 -62 -240 vhcurveto
          -394 36 274 233 -272 vlineto
          hintmask 11111110
          -35 -36 -25 -50 -40 vvcurveto
          -41 21 -31 -45 callgsubr
          hintmask 11111010
          -254 472 rmoveto
          116 vlineto
          191 7 47 110 109 7 -47 -191 vhcurveto
          -116 vlineto
          endchar
        </CharString>
        <CharString name="Aring">
          69 21 -6 callgsubr
          436 123 callgsubr
          hstem
          120 33 95 33 vstem
          221 687 -36 callsubr
        </CharString>
        <CharString name="Aring.ss01">
          -70 callgsubr
          48 123 callgsubr
          hstem
          60 36 39 33 95 33 33 36 vstem
          215 744 -86 callsubr
          114 -772 rmoveto
          -106 callsubr
        </CharString>
        <CharString name="Aringacute">
          69 21 -6 callgsubr
          436 123 callgsubr
          62 138 hstem
          120 33 95 33 vstem
          259 1053 rmoveto
          -90 callgsubr
          -5 23 vlineto
          12 -233 -36 callsubr
        </CharString>
        <CharString name="Aringacute.ss01">
          -70 callgsubr
          39 123 callgsubr
          32 138 hstem
          60 36 36 33 95 33 36 36 vstem
          201 938 -100 callsubr
          11 -208 -86 callsubr
          117 -763 rmoveto
          -106 callsubr
        </CharString>
        <CharString name="Atilde">
          -75 callgsubr
          93 -29 callgsubr
          87 -15 callgsubr
          hintmask 00000000
          hintmask 11011111
          314 30 callsubr
          hintmask 11010111
          -102 callgsubr
          hintmask 11011111
          -92 callsubr
          hintmask 11010111
          30 -856 -95 callsubr
          hintmask 11100111
          -87 callsubr
          endchar
        </CharString>
        <CharString name="Atilde.ss01">
          -70 callgsubr
          65 103 callgsubr
          6 -15 callgsubr
          0 36 -11 callgsubr
          hintmask 1111110100000000
          329 856 -72 callsubr
          hintmask 1110110010000000
          -856 vmoveto
          -106 callsubr
        </CharString>
        <CharString name="B">
          71 0 148 callsubr
          288 34 hstemhm
          65 36 216 36 -31 36 hintmask 11111000
          65 hmoveto
          139 hlineto
          hintmask 11110100
          135 19 91 89 76 -12 76 -89 18 hvcurveto
          4 vlineto
          hintmask 11111000
          69 16 27 56 90 vvcurveto
          102 -30 70 -113 vhcurveto
          -145 hlineto
          140 -322 rmoveto
          -104 288 104 hlineto
          88 24 -44 -100 -96 -43 -48 -69 hvcurveto
          hintmask 11110100
          2 -332 rmoveto
          -106 298 106 hlineto
          81 34 -44 -105 -102 -27 -47 -88 hvcurveto
          endchar
        </CharString>
        <CharString name="C">
          -14 -8 101 callgsubr
          vstem
          293 2 -84 callsubr
        </CharString>
        <CharString name="Cacute">
          -14 72 callgsubr
          vstem
          145 -80 callgsubr
          148 -753 -84 callsubr
        </CharString>
        <CharString name="Cacute.loclPLK">
          -14 72 callgsubr
          59 53 vstem
          145 750 rmoveto
          -64 callsubr
          148 -753 -84 callsubr
        </CharString>
        <CharString name="Ccaron">
          -14 84 callsubr
          30 hstem
          50 36 vstem
          136 750 -99 callgsubr
          224 -881 -84 callsubr
        </CharString>
        <CharString name="Ccedilla">
          -14 -8 34 -7 -21 664 34 hstemhm
          50 36 hintmask 10110000
          216 26 rmoveto
          -118 -12 35 283 283 12 35 118 23 31 -4 -6 21 hvcurveto
          32 vlineto
          7 -19 -35 5 -27 hhcurveto
          -137 -23 -48 -304 hvcurveto
          hintmask 01110000
          -249 15 -76 78 -21 vhcurveto
          -55 -183 rlineto
          -5 40 vlineto
          hintmask 10110000
          42 184 rlineto
          -1 12 13 -1 15 hhcurveto
          27 34 4 6 22 hvcurveto
          34 vlineto
          -6 -20 -33 -4 -24 hhcurveto
          endchar
        </CharString>
        <CharString name="Ccircumflex">
          -14 -8 144 callsubr
          vstem
          69 750 rmoveto
          27 hlineto
          63 108 -44 callgsubr
          224 -753 -84 callsubr
        </CharString>
        <CharString name="Cdotaccent">
          -14 -35 callsubr
          118 61 hstem
          50 36 52 41 vstem
          138 18 callsubr
          155 -873 -84 callsubr
        </CharString>
        <CharString name="D">
          75 0 34 620 34 hstem
          65 36 220 0 callsubr
          endchar
        </CharString>
        <CharString name="Dcaron">
          75 109 callsubr
          181 750 -99 callgsubr
          -49 -883 rmoveto
          -35 callgsubr
          endchar
        </CharString>
        <CharString name="Dcroat">
          -34 callgsubr
        </CharString>
        <CharString name="E">
          -59 callsubr
          hstem
          65 37 vstem
          65 hmoveto
          -87 callgsubr
        </CharString>
        <CharString name="Eacute">
          -59 callsubr
          62 138 hstem
          65 37 vstem
          186 -80 callgsubr
          -121 -755 -86 callgsubr
        </CharString>
        <CharString name="Ebreve">
          -59 callsubr
          59 28 hstemhm
          65 37 -1 -40 callgsubr
          hintmask 11111010
          284 145 callsubr
          hintmask 11110110
          126 callgsubr
          hintmask 11111010
          91 1 59 82 hvcurveto
          -219 -888 -86 callgsubr
        </CharString>
        <CharString name="Ecaron">
          -59 callsubr
          62 30 hstem
          65 37 vstem
          170 750 -99 callgsubr
          -38 -883 -86 callgsubr
        </CharString>
        <CharString name="Ecircumflex">
          -59 callsubr
          170 30 hstem
          65 37 -10 callgsubr
          endchar
        </CharString>
        <CharString name="Edieresis">
          -59 callsubr
          82 61 hstemhm
          65 37 -14 44 callsubr
          hintmask 00000000
          hintmask 11110110
          88 770 -84 callgsubr
          hintmask 11111010
          -193 -831 -86 callgsubr
        </CharString>
        <CharString name="Edotaccent">
          -59 callsubr
          126 61 hstem
          65 37 70 41 vstem
          172 18 callsubr
          -107 -875 -86 callgsubr
        </CharString>
        <CharString name="Egrave">
          -59 callsubr
          62 138 hstem
          65 37 vstem
          193 750 -85 callgsubr
          -78 -883 -86 callgsubr
        </CharString>
        <CharString name="Emacron">
          -59 callsubr
          164 36 hstemhm
          65 37 8 165 hintmask 00000000
          hintmask 11111100
          110 852 -48 callsubr
          hintmask 11111000
          -45 -888 -86 callgsubr
        </CharString>
        <CharString name="Eng">
          102 -190 30 181 83 callgsubr
          129 callsubr
          hintmask 11011100
          334 688 rmoveto
          -587 -4 vlineto
          -222 587 rlineto
          -43 -688 35 hlineto
          hintmask 11101100
          123 callsubr
          230 -595 rlineto
          -103 vlineto
          -45 -5 -12 -56 vhcurveto
          -30 vlineto
          66 30 5 92 hvcurveto
          781 vlineto
          endchar
        </CharString>
        <CharString name="Eogonek">
          19 -196 32 164 34 297 -17 callgsubr
          hstem
          65 37 116 34 vstem
          294 12 callgsubr
          21 24 42 39 54 30 23 hvcurveto
          34 -219 297 191 34 -191 289 219 34 -256 -688 221 vlineto
          -39 -35 -29 -48 -44 vvcurveto
          -37 21 -32 55 vhcurveto
          endchar
        </CharString>
        <CharString name="Eth">
          -34 callgsubr
        </CharString>
        <CharString name="Euro">
          33 -8 34 226 34 119 34 223 34 hstem
          82 36 vstem
          242 -8 rmoveto
          27 34 4 6 22 hvcurveto
          34 vlineto
          -6 -20 -33 -4 -24 hhcurveto
          -104 -22 27 199 -4 hvcurveto
          170 34 -170 119 170 34 -170 hlineto
          196 4 22 27 104 hhcurveto
          23 31 -4 -6 21 hvcurveto
          32 vlineto
          7 -19 -35 5 -27 hhcurveto
          -121 -32 -38 -219 -6 hvcurveto
          -43 -34 42 -119 -42 -34 43 hlineto
          -225 5 32 -35 122 hhcurveto
          endchar
        </CharString>
        <CharString name="F">
          2 21 -21 317 34 303 34 hstem
          65 37 vstem
          65 hmoveto
          37 317 185 34 -185 303 207 34 -244 hlineto
          endchar
        </CharString>
        <CharString name="G">
          2 callgsubr
          hstem
          50 36 223 36 vstem
          309 315 rmoveto
          -93 callgsubr
          endchar
        </CharString>
        <CharString name="G.ss01">
          2 callsubr
          137 callgsubr
          218 -8 -94 callgsubr
          endchar
        </CharString>
        <CharString name="G_tilde.loclGUA">
          2 callgsubr
          97 -29 callgsubr
          50 36 -4 -15 callgsubr
          0 36 -11 callgsubr
          hintmask 1111110100000000
          309 888 -72 callsubr
          hintmask 1110110010000000
          -573 vmoveto
          -93 callgsubr
          endchar
        </CharString>
        <CharString name="Gbreve">
          2 callgsubr
          51 28 hstemhm
          50 36 18 -40 callgsubr
          22 36 hintmask 00000000
          hintmask 11111111
          287 -63 callsubr
          hintmask 11111001
          22 -573 rmoveto
          -93 callgsubr
          endchar
        </CharString>
        <CharString name="Gbreve.ss01">
          2 callsubr
          51 28 hstemhm
          50 36 27 -40 callgsubr
          32 35 hintmask 11111011
          296 145 callsubr
          hintmask 11111111
          126 callgsubr
          hintmask 11111011
          91 1 59 82 hvcurveto
          -78 -896 -94 callgsubr
          endchar
        </CharString>
        <CharString name="Gcaron">
          2 callgsubr
          54 30 hstem
          50 36 223 36 vstem
          173 750 -99 callgsubr
          203 -568 rmoveto
          -93 callgsubr
          endchar
        </CharString>
        <CharString name="Gcaron.ss01">
          2 callsubr
          54 30 137 callgsubr
          182 750 -99 callgsubr
          103 -891 -94 callgsubr
          endchar
        </CharString>
        <CharString name="Gcircumflex">
          2 callgsubr
          162 30 hstem
          50 36 223 36 vstem
          106 750 rmoveto
          27 hlineto
          63 108 -44 callgsubr
          203 -440 rmoveto
          -93 callgsubr
          endchar
        </CharString>
        <CharString name="Gcircumflex.ss01">
          2 callsubr
          162 30 137 callgsubr
          115 750 rmoveto
          27 hlineto
          63 108 -44 callgsubr
          103 -763 -94 callgsubr
          endchar
        </CharString>
        <CharString name="Gcommaaccent">
          60 -2 callgsubr
          54 34 callsubr
          hstem
          50 36 119 26 78 36 vstem
          309 315 rmoveto
          -93 callgsubr
          -46 -522 rmoveto
          70 callsubr
        </CharString>
        <CharString name="Gcommaaccent.ss01">
          78 -2 callgsubr
          54 34 callgsubr
          hstem
          50 36 128 26 88 35 vstem
          218 -8 -94 callgsubr
          -48 -199 rmoveto
          70 callsubr
        </CharString>
        <CharString name="Gdotaccent">
          2 callgsubr
          118 61 hstem
          50 36 89 41 93 36 vstem
          175 18 callsubr
          134 -560 rmoveto
          -93 callgsubr
          endchar
        </CharString>
        <CharString name="Gdotaccent.ss01">
          2 callsubr
          118 61 hstem
          50 36 98 41 103 35 vstem
          184 18 callsubr
          34 -883 -94 callgsubr
          endchar
        </CharString>
        <CharString name="Gtilde.loclGUA.ss01">
          2 callsubr
          97 -29 callgsubr
          50 36 5 -15 callgsubr
          10 57 callsubr
          hintmask 1111110110000000
          318 888 -58 callgsubr
          107 callgsubr
          hintmask 1110110010000000
          -100 -896 -94 callgsubr
          endchar
        </CharString>
        <CharString name="H">
          102 21 -21 331 34 323 -20 hstem
          65 36 232 42 callgsubr
          endchar
        </CharString>
        <CharString name="Hbar">
          102 21 -21 311 34 149 36 -36 194 hstemhm
          65 36 232 36 hintmask 00000000
          hintmask 11011100
          333 688 rmoveto
          hintmask 11101100
          -158 -232 vlineto
          hintmask 11011100
          158 -36 -688 36 311 232 -311 36 688 vlineto
          -268 -343 rmoveto
          hintmask 11101100
          149 232 -149 vlineto
          endchar
        </CharString>
        <CharString name="Hcircumflex">
          102 21 -21 331 34 323 -20 190 30 hstem
          65 36 232 36 vstem
          127 750 rmoveto
          27 hlineto
          63 108 -44 callgsubr
          206 -755 rmoveto
          71 callgsubr
          endchar
        </CharString>
        <CharString name="I">
          -156 105 callgsubr
          70 36 vstem
          70 hmoveto
          -3 callsubr
        </CharString>
        <CharString name="IJ">
          21 103 callsubr
          70 36 151 36 vstem
          70 hmoveto
          40 callsubr
          116 -654 -58 callsubr
        </CharString>
        <CharString name="Iacute">
          -156 -32 callsubr
          82 138 hstem
          70 36 vstem
          70 -80 callgsubr
          -755 vmoveto
          -3 callsubr
        </CharString>
        <CharString name="Iacute_J.loclNLD">
          21 65 callgsubr
          82 138 hstem
          70 36 151 36 vstem
          74 -80 callgsubr
          187 -5 -100 callsubr
          -191 -755 rmoveto
          40 callsubr
          116 -654 -58 callsubr
        </CharString>
        <CharString name="Ibreve">
          -156 -32 callsubr
          79 28 hstem
          -4 33 41 36 40 33 vstem
          179 -63 callsubr
          -109 -888 -5 callsubr
        </CharString>
        <CharString name="Icircumflex">
          -156 -32 callsubr
          190 30 hstem
          70 36 vstem
          -2 750 rmoveto
          27 hlineto
          63 108 -44 callgsubr
          72 -755 -5 callsubr
        </CharString>
        <CharString name="Idieresis">
          -156 -32 callsubr
          102 61 hstem
          -17 41 46 36 47 41 vstem
          -17 770 -84 callgsubr
          -83 -831 -5 callsubr
        </CharString>
        <CharString name="Idotaccent">
          -156 -32 callsubr
          146 61 hstemhm
          67 41 -38 36 hintmask 00000000
          hintmask 11110000
          67 18 callsubr
          hintmask 11101000
          3 -875 -5 callsubr
        </CharString>
        <CharString name="Igrave">
          -156 -32 callsubr
          82 138 hstem
          70 36 vstem
          83 750 -85 callgsubr
          37 -883 -5 callsubr
        </CharString>
        <CharString name="Imacron">
          -156 -32 callsubr
          184 36 hstemhm
          5 165 -100 36 hintmask 00000000
          hintmask 11110000
          5 852 -48 callsubr
          hintmask 11101000
          65 -888 -5 callsubr
        </CharString>
        <CharString name="Iogonek">
          -156 -196 32 185 -7 callsubr
          hstemhm
          9 34 27 36 hintmask 00000000
          hintmask 11111000
          85 12 callgsubr
          20 26 hvcurveto
          hintmask 11101000
          40 36 55 27 23 vhcurveto
          688 -36 -688 1 vlineto
          hintmask 11111000
          -36 -35 -26 -49 -40 vvcurveto
          -41 21 -31 55 vhcurveto
          endchar
        </CharString>
        <CharString name="Itilde">
          -156 -32 callsubr
          125 -29 callgsubr
          -26 27 69 36 68 27 hintmask 00000000
          hintmask 11111110
          201 -13 callgsubr
          -131 -888 -5 callsubr
        </CharString>
        <CharString name="J">
          -155 103 callsubr
          81 36 vstem
          10 34 -58 callsubr
        </CharString>
        <CharString name="Jcircumflex">
          -155 65 callgsubr
          190 30 hstem
          81 36 vstem
          9 750 rmoveto
          27 hlineto
          63 108 -44 callgsubr
          1 -721 -58 callsubr
        </CharString>
        <CharString name="K">
          54 21 -21 332 34 322 -20 hstem
          65 36 14 callsubr
          endchar
        </CharString>
        <CharString name="Kcommaaccent">
          54 -2 callgsubr
          83 -21 332 34 322 -20 hstem
          65 36 101 26 14 callsubr
          -27 -539 rmoveto
          70 callsubr
        </CharString>
        <CharString name="L">
          -30 103 callsubr
          65 37 6 callsubr
          endchar
        </CharString>
        <CharString name="Lacute">
          -30 65 callgsubr
          82 138 hstem
          65 37 vstem
          70 -80 callgsubr
          -5 -755 rmoveto
          232 34 -195 654 -37 hlineto
          endchar
        </CharString>
        <CharString name="Lcaron">
          -30 103 callsubr
          65 37 90 39 6 callsubr
          115 -234 13 callgsubr
          endchar
        </CharString>
        <CharString name="Lcommaaccent">
          -30 -2 callgsubr
          62 132 callsubr
          hstem
          65 37 68 26 6 callsubr
          61 -895 rmoveto
          70 callsubr
        </CharString>
        <CharString name="Ldot">
          -30 0 34 293 65 296 -20 hstem
          65 37 126 44 6 callsubr
          163 -361 -79 callsubr
        </CharString>
        <CharString name="Lslash">
          -30 103 callsubr
          65 37 vstem
          102 34 rmoveto
          270 vlineto
          131 48 rlineto
          34 vlineto
          -131 -48 rlineto
          350 -37 -364 vlineto
          -45 -16 rlineto
          -34 vlineto
          45 16 rlineto
          -290 232 34 vlineto
          endchar
        </CharString>
        <CharString name="M">
          209 0 73 -52 -21 595 93 hstemhm
          65 35 340 36 hintmask 01111000
          440 hmoveto
          36 688 -51 hlineto
          hintmask 10111000
          -152 -615 rlineto
          -5 hlineto
          -151 615 rlineto
          -52 -688 35 595 4 hlineto
          144 -595 rlineto
          42 hlineto
          146 595 rlineto
          4 hlineto
          endchar
        </CharString>
        <CharString name="N">
          9 callgsubr
          129 callsubr
          hintmask 01011100
          326 hmoveto
          90 callgsubr
          hintmask 10011100
          -49 callsubr
          hintmask 01101100
          123 callsubr
          endchar
        </CharString>
        <CharString name="Nacute">
          9 callgsubr
          82 138 129 callsubr
          hintmask 01011110
          203 -80 callgsubr
          123 -755 rmoveto
          90 callgsubr
          hintmask 10011110
          -49 callsubr
          hintmask 01101110
          123 callsubr
          endchar
        </CharString>
        <CharString name="Nacute.loclPLK">
          9 callgsubr
          82 138 hstemhm
          65 35 103 53 78 35 hintmask 01011111
          203 750 rmoveto
          -64 callsubr
          123 -755 rmoveto
          90 callgsubr
          hintmask 10011111
          -49 callsubr
          hintmask 01101111
          123 callsubr
          endchar
        </CharString>
        <CharString name="Ncaron">
          9 callgsubr
          82 30 129 callsubr
          hintmask 01011110
          194 750 -99 callgsubr
          199 -883 rmoveto
          90 callgsubr
          hintmask 10011110
          -49 callsubr
          hintmask 01101110
          123 callsubr
          endchar
        </CharString>
        <CharString name="Ncommaaccent">
          102 -2 callgsubr
          62 52 callgsubr
          hstemhm
          65 35 126 26 82 35 hintmask 1101011110000000
          326 hmoveto
          90 callgsubr
          hintmask 1110011110000000
          -49 callsubr
          hintmask 1101101110000000
          123 callsubr
          78 -802 rmoveto
          70 callsubr
        </CharString>
        <CharString name="Ntilde">
          9 callgsubr
          93 -29 callgsubr
          65 35 4 -15 callgsubr
          3 57 callsubr
          hintmask 0101111010000000
          331 30 callsubr
          hintmask 0101010101000000
          -102 callgsubr
          hintmask 0101111010000000
          -92 callsubr
          hintmask 0101011001000000
          -5 -856 rmoveto
          90 callgsubr
          hintmask 1001011001000000
          -49 callsubr
          hintmask 0110011001000000
          123 callsubr
          endchar
        </CharString>
        <CharString name="O">
          113 callgsubr
          214 -8 -105 callgsubr
          endchar
        </CharString>
        <CharString name="OE">
          276 0 34 297 -17 callgsubr
          20 callgsubr
          214 hmoveto
          364 34 -200 hlineto
          -18 -23 -2 -2 -12 hvcurveto
          43 36 9 91 1 174 rrcurveto
          172 34 -172 hlineto
          -1 168 -9 89 -43 36 rrcurveto
          -2 13 24 -2 16 hhcurveto
          200 34 -364 hlineto
          -146 -18 -47 -297 -297 18 -47 146 hvcurveto
          34 vmoveto
          -109 -19 15 295 295 19 15 109 -43 callsubr
          endchar
        </CharString>
        <CharString name="Oacute">
          25 callgsubr
          199 -80 callgsubr
          15 -763 -105 callgsubr
          endchar
        </CharString>
        <CharString name="Oacute.loclPLK">
          96 72 callgsubr
          114 53 89 36 vstem
          200 750 rmoveto
          -64 callsubr
          14 -763 -105 callgsubr
          endchar
        </CharString>
        <CharString name="Obreve">
          -19 callgsubr
          51 28 hstem
          50 36 36 -40 callgsubr
          37 36 vstem
          305 -63 callsubr
          -91 -896 -105 callgsubr
          endchar
        </CharString>
        <CharString name="Ocircumflex">
          96 -8 144 callsubr
          256 22 callgsubr
          90 -763 -105 callgsubr
          endchar
        </CharString>
        <CharString name="Odieresis">
          -19 callgsubr
          74 61 hstemhm
          50 36 22 44 callsubr
          23 36 hintmask 00000000
          hintmask 11111110
          108 770 -84 callgsubr
          hintmask 11110010
          -64 -839 -105 callgsubr
          endchar
        </CharString>
        <CharString name="Ograve">
          25 callgsubr
          207 750 -85 callgsubr
          57 -891 -105 callgsubr
          endchar
        </CharString>
        <CharString name="Ohorn">
          51 callgsubr
          hstemhm
          38 callgsubr
          -7 31 hintmask 00000000
          hintmask 11010100
          371 786 -67 callgsubr
          -38 hlineto
          hintmask 10111000
          -62 callsubr
          hintmask 11011000
          53 callgsubr
          hintmask 11010100
          28 callgsubr
          hintmask 10111000
          -68 callgsubr
          endchar
        </CharString>
        <CharString name="Ohungarumlaut">
          -19 callgsubr
          60 119 20 callgsubr
          156 756 -74 callgsubr
          -42 -769 -105 callgsubr
          endchar
        </CharString>
        <CharString name="Omacron">
          -19 callgsubr
          156 36 hstem
          50 36 45 165 46 36 vstem
          131 852 -48 callsubr
          83 -896 -105 callgsubr
          endchar
        </CharString>
        <CharString name="Oslash">
          113 callgsubr
          378 743 -57 callgsubr
        </CharString>
        <CharString name="Oslashacute">
          25 callgsubr
          273 883 rmoveto
          -90 callgsubr
          -5 23 vlineto
          155 -7 -57 callgsubr
        </CharString>
        <CharString name="Otilde">
          -19 callgsubr
          65 115 callgsubr
          hintmask 00000000
          hintmask 11111011
          327 30 callsubr
          hintmask 11011101
          -102 callgsubr
          hintmask 11111011
          -92 callsubr
          hintmask 11011001
          -113 -864 -105 callgsubr
          endchar
        </CharString>
        <CharString name="P">
          43 21 -21 274 34 346 34 hstem
          65 36 213 149 callgsubr
          36 274 92 callgsubr
          -149 hlineto
          36 -380 87 callgsubr
        </CharString>
        <CharString name="Q">
          113 callgsubr
          325 18 rmoveto
          45 39 8 89 198 vvcurveto
          304 -18 48 -146 -146 -18 -48 -304 -304 18 -48 146 33 26 2 7 21 vhcurveto
          55 -116 rlineto
          38 2 hlineto
          -173 139 rmoveto
          -109 -19 15 303 303 19 15 109 109 19 -15 -303 -181 -6 -78 -27 -34 hvcurveto
          -79 167 rlineto
          -39 hlineto
          88 -186 rlineto
          -6 -17 -21 0 -27 hhcurveto
          endchar
        </CharString>
        <CharString name="R">
          99 callsubr
          hstem
          65 36 218 -23 callsubr
          endchar
        </CharString>
        <CharString name="R.ss01">
          99 callgsubr
          hstem
          65 36 218 -34 callsubr
          endchar
        </CharString>
        <CharString name="Racute">
          99 callsubr
          62 138 19 callsubr
          262 883 rmoveto
          -90 callgsubr
          -5 23 vlineto
          153 -750 rmoveto
          -91 callsubr
          endchar
        </CharString>
        <CharString name="Racute.ss01">
          99 callgsubr
          62 138 19 callsubr
          263 883 rmoveto
          -90 callgsubr
          -5 23 vlineto
          138 -579 -93 callsubr
          endchar
        </CharString>
        <CharString name="Rcaron">
          99 callsubr
          62 30 19 callsubr
          226 750 rmoveto
          67 -46 callgsubr
          -27 vlineto
          -63 -108 -63 108 rlineto
          -27 -5 hlineto
          67 -73 callsubr
          185 -750 rmoveto
          -91 callsubr
          endchar
        </CharString>
        <CharString name="Rcaron.ss01">
          99 callgsubr
          62 30 19 callsubr
          227 750 rmoveto
          67 -46 callgsubr
          -27 vlineto
          -63 -108 -63 108 rlineto
          -27 -5 hlineto
          67 -73 callsubr
          170 -579 -93 callsubr
          endchar
        </CharString>
        <CharString name="Rcommaaccent">
          73 -2 callgsubr
          83 -21 294 34 326 34 hstem
          65 36 111 26 81 -23 callsubr
          -26 -455 rmoveto
          27 callsubr
          -21 vlineto
          57 13 19 72 hvcurveto
          75 -46 vlineto
          endchar
        </CharString>
        <CharString name="Rcommaaccent.ss01">
          76 -2 callgsubr
          83 -21 298 34 322 34 hstem
          65 36 112 26 80 -34 callsubr
          -26 -459 rmoveto
          27 callsubr
          -21 vlineto
          57 13 19 72 hvcurveto
          75 -46 vlineto
          endchar
        </CharString>
        <CharString name="S">
          24 -35 callsubr
          hstem
          35 36 214 -54 callgsubr
          endchar
        </CharString>
        <CharString name="Sacute">
          24 62 callsubr
          35 36 214 36 vstem
          164 -80 callgsubr
          13 -763 -101 callsubr
          endchar
        </CharString>
        <CharString name="Sacute.loclPLK">
          24 62 callsubr
          35 36 93 53 68 36 vstem
          164 750 rmoveto
          -64 callsubr
          13 -763 -101 callsubr
          endchar
        </CharString>
        <CharString name="Scaron">
          24 84 callsubr
          30 136 callsubr
          157 750 -99 callgsubr
          87 -891 -101 callsubr
          endchar
        </CharString>
        <CharString name="Scedilla">
          24 -35 callsubr
          136 callsubr
          321 188 rmoveto
          58 0 35 -7 19 vhcurveto
          -15 45 -29 12 -47 9 -96 19 rcurveline
          -48 9 -8 13 106 vvcurveto
          44 3 37 16 28 vhcurveto
          26 15 29 14 57 hhcurveto
          34 46 -5 -7 29 hvcurveto
          33 vlineto
          8 -22 -48 5 -47 hhcurveto
          -116 -32 -65 -116 -94 0 -56 69 -13 hvcurveto
          106 -20 rlineto
          73 -14 2 -9 -126 vvcurveto
          -60 -3 -47 -22 -21 vhcurveto
          -22 -22 -28 -7 -45 hhcurveto
          -31 -52 6 7 -35 hvcurveto
          -35 vlineto
          30 -6 45 -5 38 -1 -53 -177 rcurveline
          -5 40 vlineto
          42 182 rlineto
          123 5 9 76 115 vvcurveto
          endchar
        </CharString>
        <CharString name="Scircumflex">
          24 -35 callsubr
          162 30 136 callsubr
          88 750 rmoveto
          27 hlineto
          63 108 -44 callgsubr
          89 -763 -101 callsubr
          endchar
        </CharString>
        <CharString name="Scommaaccent">
          24 -2 callgsubr
          54 34 636 34 hstem
          35 36 116 26 72 -54 callgsubr
          -34 -199 rmoveto
          70 callsubr
        </CharString>
        <CharString name="T">
          0 131 callsubr
          148 36 vstem
          31 callgsubr
          endchar
        </CharString>
        <CharString name="Tbar">
          0 21 -21 330 32 292 34 hstem
          148 36 vstem
          317 654 rmoveto
          34 -302 -34 133 -292 -102 -32 102 -330 36 330 102 32 -102 292 vlineto
          endchar
        </CharString>
        <CharString name="Tcaron">
          0 21 -21 654 34 62 30 hstem
          148 36 vstem
          143 750 -99 callgsubr
          72 -883 rmoveto
          61 callgsubr
          endchar
        </CharString>
        <CharString name="Thorn">
          43 21 -21 143 34 346 34 131 -20 hstem
          65 36 213 149 callgsubr
          36 143 92 callgsubr
          -113 131 -36 hlineto
          36 -511 87 callgsubr
        </CharString>
        <CharString name="U">
          -30 callsubr
          -3 callgsubr
          329 688 rmoveto
          -424 vlineto
          -104 callsubr
          394 vlineto
          endchar
        </CharString>
        <CharString name="Uacute">
          -30 callsubr
          82 138 -3 callgsubr
          202 -80 callgsubr
          127 -67 rmoveto
          -424 vlineto
          -104 callsubr
          394 vlineto
          endchar
        </CharString>
        <CharString name="Ubreve">
          -30 callsubr
          79 47 callgsubr
          hintmask 11111110
          304 -63 callsubr
          hintmask 11110010
          25 -200 rmoveto
          -424 vlineto
          -104 callsubr
          394 vlineto
          endchar
        </CharString>
        <CharString name="Ucircumflex">
          -30 callsubr
          190 118 callsubr
          122 750 rmoveto
          27 hlineto
          63 108 -44 callgsubr
          207 -67 rmoveto
          -424 vlineto
          -104 callsubr
          394 vlineto
          endchar
        </CharString>
        <CharString name="Udieresis">
          -30 callsubr
          102 61 21 callgsubr
          hintmask 11111110
          107 770 -84 callgsubr
          hintmask 11110010
          52 -143 rmoveto
          -424 vlineto
          -104 callsubr
          394 vlineto
          endchar
        </CharString>
        <CharString name="Ugrave">
          -30 callsubr
          82 138 -3 callgsubr
          209 750 -85 callgsubr
          170 -195 rmoveto
          -424 vlineto
          -104 callsubr
          394 vlineto
          endchar
        </CharString>
        <CharString name="Uhorn">
          104 callsubr
          -1 callsubr
          50 31 vstem
          415 786 -67 callgsubr
          -6 hlineto
          -36 -424 hlineto
          -104 callsubr
          366 6 vlineto
          7 callsubr
          vlineto
          endchar
        </CharString>
        <CharString name="Uhungarumlaut">
          -30 callsubr
          88 119 -3 callgsubr
          155 756 -74 callgsubr
          74 -73 rmoveto
          -424 vlineto
          -104 callsubr
          394 vlineto
          endchar
        </CharString>
        <CharString name="Umacron">
          -30 callsubr
          184 46 callgsubr
          -200 rmoveto
          -424 vlineto
          -104 callsubr
          394 vlineto
          endchar
        </CharString>
        <CharString name="Uogonek">
          93 -196 32 156 34 662 -20 hstem
          60 36 106 34 93 36 vstem
          329 688 rmoveto
          -424 vlineto
          -191 -7 -47 -109 -110 -7 47 191 vhcurveto
          424 -36 -394 vlineto
          -240 12 -62 141 16 15 1 2 13 vhcurveto
          -33 -37 -22 -45 -37 vvcurveto
          -41 21 -31 -45 callgsubr
          -35 -12 20 26 47 31 55 43 29 hvcurveto
          49 34 6 81 166 vvcurveto
          394 vlineto
          endchar
        </CharString>
        <CharString name="Uring">
          -30 callsubr
          67 123 callgsubr
          hstem
          60 36 36 33 95 33 36 36 vstem
          212 735 -86 callsubr
          117 -75 rmoveto
          -424 vlineto
          -104 callsubr
          394 vlineto
          endchar
        </CharString>
        <CharString name="Utilde">
          -30 callsubr
          125 120 callsubr
          173 27 3 36 hintmask 00000000
          hintmask 11111010
          326 888 -89 callsubr
          hintmask 11010101
          -102 callgsubr
          hintmask 11111010
          -92 callsubr
          hintmask 11011001
          3 -200 rmoveto
          -424 vlineto
          -104 callsubr
          394 vlineto
          endchar
        </CharString>
        <CharString name="V">
          27 0 71 -50 -7 callsubr
          hstemhm
          5 349 hintmask 01110000
          159 hmoveto
          41 hlineto
          154 688 rlineto
          -35 hlineto
          hintmask 10110000
          -136 -617 rlineto
          -5 hlineto
          -135 617 rlineto
          -38 hlineto
          endchar
        </CharString>
        <CharString name="W">
          32 callsubr
          hstemhm
          8 523 hintmask 10110000
          378 hmoveto
          -71 callgsubr
          hintmask 11010000
          106 609 rlineto
          4 hlineto
          endchar
        </CharString>
        <CharString name="Wacute">
          32 callsubr
          82 138 hstemhm
          8 523 hintmask 10111000
          256 -80 callgsubr
          122 -755 rmoveto
          -71 callgsubr
          hintmask 11011000
          106 609 rlineto
          4 hlineto
          endchar
        </CharString>
        <CharString name="Wcircumflex">
          32 callsubr
          190 30 hstemhm
          8 523 hintmask 10111000
          180 750 rmoveto
          27 hlineto
          63 108 -44 callgsubr
          198 -755 rmoveto
          -71 callgsubr
          hintmask 11011000
          106 609 rlineto
          4 hlineto
          endchar
        </CharString>
        <CharString name="Wdieresis">
          32 callsubr
          146 61 hstemhm
          164 44 callsubr
          hintmask 10111100
          164 814 -84 callgsubr
          44 -875 rmoveto
          -71 callgsubr
          hintmask 11011100
          106 609 rlineto
          4 hlineto
          endchar
        </CharString>
        <CharString name="Wgrave">
          32 callsubr
          82 138 hstemhm
          8 523 hintmask 10111000
          261 750 -85 callgsubr
          167 -883 rmoveto
          -71 callgsubr
          hintmask 11011000
          106 609 rlineto
          4 hlineto
          endchar
        </CharString>
        <CharString name="X">
          54 105 callgsubr
          15 356 vstem
          332 hmoveto
          39 hlineto
          -155 347 153 341 rlineto
          -38 hlineto
          -135 -304 rlineto
          -4 hlineto
          -136 304 rlineto
          -39 hlineto
          153 -342 -155 -346 rlineto
          38 hlineto
          137 307 rlineto
          4 hlineto
          endchar
        </CharString>
        <CharString name="Y">
          3 105 callgsubr
          149 36 vstem
          149 hmoveto
          -81 callsubr
          endchar
        </CharString>
        <CharString name="Y.loclGUA">
          -9 callgsubr
          79 callgsubr
          284 688 -89 callgsubr
          endchar
        </CharString>
        <CharString name="Yacute">
          3 -32 callsubr
          82 138 hstem
          149 36 vstem
          158 -80 callgsubr
          -9 -755 rmoveto
          -81 callsubr
          endchar
        </CharString>
        <CharString name="Yacute.loclGUA">
          -9 callgsubr
          82 138 79 callgsubr
          226 883 rmoveto
          -90 callgsubr
          -5 23 vlineto
          108 -62 -89 callgsubr
          endchar
        </CharString>
        <CharString name="Ycircumflex">
          3 -32 callsubr
          190 30 hstem
          149 36 vstem
          78 750 rmoveto
          27 hlineto
          63 108 -44 callgsubr
          71 -755 rmoveto
          -81 callsubr
          endchar
        </CharString>
        <CharString name="Ycircumflex.loclGUA">
          -9 callgsubr
          190 30 79 callgsubr
          167 858 -61 callsubr
          180 -62 -89 callgsubr
          endchar
        </CharString>
        <CharString name="Ydieresis">
          3 -32 callsubr
          102 61 hstem
          63 41 45 36 48 41 vstem
          63 770 -84 callgsubr
          -84 -831 rmoveto
          -81 callsubr
          endchar
        </CharString>
        <CharString name="Ydieresis.loclGUA">
          -9 callgsubr
          146 61 hstemhm
          15 36 10 41 47 36 46 41 12 36 -11 callgsubr
          hintmask 1111111110000000
          102 875 48 callsubr
          hintmask 1111101010000000
          12 -126 -89 callgsubr
          endchar
        </CharString>
        <CharString name="Ygrave">
          3 -32 callsubr
          82 138 hstem
          149 36 vstem
          159 750 -85 callgsubr
          40 -883 rmoveto
          -81 callsubr
          endchar
        </CharString>
        <CharString name="Ygrave.loclGUA">
          -9 callgsubr
          82 138 79 callgsubr
          181 750 -42 callsubr
          126 -62 -89 callgsubr
          endchar
        </CharString>
        <CharString name="Z">
          0 0 34 620 34 hstem
          20 292 vstem
          20 hmoveto
          -71 callsubr
          endchar
        </CharString>
        <CharString name="Zacute">
          0 0 34 620 34 62 138 hstem
          20 292 vstem
          152 -80 callgsubr
          -132 -755 rmoveto
          -71 callsubr
          endchar
        </CharString>
        <CharString name="Zacute.loclPLK">
          0 0 34 620 34 62 138 hstemhm
          152 53 hintmask 00000000
          hintmask 11110000
          152 750 rmoveto
          -64 callsubr
          -132 -755 rmoveto
          -71 callsubr
          endchar
        </CharString>
        <CharString name="Zcaron">
          0 0 34 620 34 62 30 hstem
          20 292 vstem
          149 750 -99 callgsubr
          -62 -883 rmoveto
          -71 callsubr
          endchar
        </CharString>
        <CharString name="Zdotaccent">
          0 0 34 620 34 126 61 hstem
          145 41 vstem
          145 18 callsubr
          -125 -875 rmoveto
          -71 callsubr
          endchar
        </CharString>
        <CharString name="a">
          -75 callsubr
          82 callsubr
          hintmask 10111100
          154 -8 -66 callsubr
          hintmask 01111100
          -107 callgsubr
          hintmask 10111100
          -102 callsubr
          endchar
        </CharString>
        <CharString name="aacute">
          -75 callsubr
          87 138 49 callsubr
          162 -74 callsubr
          -8 -618 -92 callgsubr
        </CharString>
        <CharString name="abreve">
          -75 callsubr
          84 28 87 callsubr
          hintmask 0000000000000000
          hintmask 1011101100000000
          271 -62 callgsubr
          hintmask 1011111010000000
          114 callsubr
          hintmask 0111111010000000
          -107 callgsubr
          hintmask 1011111010000000
          -102 callsubr
          endchar
        </CharString>
        <CharString name="acircumflex">
          40 callgsubr
          49 callsubr
          90 605 rmoveto
          27 hlineto
          63 108 -44 callgsubr
          64 -618 -92 callgsubr
        </CharString>
        <CharString name="acute">
          119 callgsubr
          73 vstem
          605 vmoveto
          -99 callsubr
          endchar
        </CharString>
        <CharString name="acute.case.loclPLK">
          -259 750 138 hstem
          0 53 vstem
          750 vmoveto
          -64 callsubr
          endchar
        </CharString>
        <CharString name="acute.loclPLK">
          119 callgsubr
          53 vstem
          605 vmoveto
          -64 callsubr
          endchar
        </CharString>
        <CharString name="acutecomb">
          605 138 hstem
          -73 73 vstem
          -73 -74 callsubr
          endchar
        </CharString>
        <CharString name="acutecomb.case">
          750 138 hstem
          -73 73 vstem
          -73 -80 callgsubr
          endchar
        </CharString>
        <CharString name="adieresis">
          -75 callsubr
          151 61 hstemhm
          30 35 10 44 callsubr
          -18 57 callsubr
          hintmask 1011111100000000
          75 669 -84 callgsubr
          hintmask 1011110010000000
          -91 -738 -66 callsubr
          hintmask 0111110010000000
          -107 callgsubr
          hintmask 1011110010000000
          -102 callsubr
          endchar
        </CharString>
        <CharString name="ae">
          143 callgsubr
          hstem
          64 callsubr
          206 35 vstem
          544 260 -68 callsubr
        </CharString>
        <CharString name="aeacute">
          143 callgsubr
          87 138 hstem
          64 callsubr
          206 35 vstem
          353 738 rmoveto
          -90 callgsubr
          -5 23 vlineto
          241 -345 -68 callsubr
        </CharString>
        <CharString name="agrave">
          -75 callsubr
          87 138 49 callsubr
          169 605 -85 callgsubr
          35 -746 -92 callgsubr
        </CharString>
        <CharString name="amacron">
          -75 callsubr
          189 36 hstemhm
          30 35 32 165 6 35 hintmask 00000000
          hintmask 10111110
          97 707 -48 callsubr
          57 -751 rmoveto
          hintmask 10111101
          -69 callsubr
          hintmask 01111101
          -107 callgsubr
          hintmask 10111110
          -122 39 -24 85 vhcurveto
          32 vmoveto
          -72 -17 21 93 hvcurveto
          hintmask 10111101
          5 callsubr
          hintmask 10111110
          93 callsubr
        </CharString>
        <CharString name="ampersand">
          91 -8 32 308 34 298 32 hstemhm
          45 35 -31 35 41 117 62 35 hintmask 11110110
          304 366 rmoveto
          -331 vlineto
          -9 -27 -34 -2 -26 hhcurveto
          -91 -46 24 129 92 8 63 90 hvcurveto
          64 34 hlineto
          hintmask 11101110
          -64 hlineto
          -89 -5 88 59 106 17 45 128 27 45 -7 -9 36 hvcurveto
          32 vlineto
          9 -33 -52 7 -36 hhcurveto
          -141 -26 -68 -113 -100 25 -43 51 -19 hvcurveto
          -4 vlineto
          hintmask 11110110
          -51 -19 -29 -34 -112 vvcurveto
          -124 22 -68 150 38 51 7 9 33 vhcurveto
          324 74 34 vlineto
          endchar
        </CharString>
        <CharString name="aogonek">
          27 -196 32 156 -65 callgsubr
          hstemhm
          30 35 144 34 25 35 hintmask 00000000
          hintmask 11011111
          290 -164 rmoveto
          -35 -12 20 25 hvcurveto
          hintmask 10111101
          43 36 55 24 21 vhcurveto
          330 vlineto
          153 -28 35 -108 -47 -43 -6 -6 148 callgsubr
          6 26 50 7 32 hhcurveto
          93 16 -18 -144 hvcurveto
          -46 vlineto
          2 -37 -61 3 -28 hhcurveto
          -87 -25 -34 -111 hvcurveto
          hintmask 11011101
          -122 39 -24 85 43 54 7 76 17 vhcurveto
          4 hlineto
          4 -69 rlineto
          hintmask 11011111
          -39 -37 -28 -50 -44 vvcurveto
          -39 21 -32 -45 callgsubr
          hintmask 11011101
          -22 374 rmoveto
          -50 -3 -36 -11 -40 vhcurveto
          -56 -16 -42 -4 -42 hhcurveto
          -72 -17 21 93 -11 callsubr
          hvcurveto
          120 hlineto
          endchar
        </CharString>
        <CharString name="approxequal">
          71 126 33 18 33 86 -29 callgsubr
          60 27 229 27 hintmask 01011100
          60 285 rmoveto
          27 hlineto
          45 6 17 29 24 25 -12 -11 23 vhcurveto
          hintmask 01111100
          10 callgsubr
          -170 vmoveto
          27 hlineto
          45 6 17 29 24 25 -12 -11 23 vhcurveto
          hintmask 11011100
          10 callgsubr
          endchar
        </CharString>
        <CharString name="aring">
          -75 callsubr
          102 123 callgsubr
          hstemhm
          30 35 34 33 95 33 8 57 callsubr
          hintmask 1011111111000000
          179 620 -86 callsubr
          -25 -656 rmoveto
          hintmask 1011111101000000
          -69 callsubr
          hintmask 0111111101000000
          -107 callgsubr
          hintmask 1011111111000000
          -122 39 -24 85 vhcurveto
          32 vmoveto
          -72 -17 21 93 hvcurveto
          hintmask 1011111101000000
          5 callsubr
          hintmask 1011111111000000
          93 callsubr
        </CharString>
        <CharString name="aringacute">
          -75 callsubr
          102 123 callgsubr
          35 138 hstemhm
          30 35 34 33 95 33 8 35 hintmask 1011111110100000
          167 826 -100 callsubr
          hintmask 1011111111100000
          12 -211 -86 callsubr
          -25 -656 rmoveto
          hintmask 1011111110100000
          -69 callsubr
          hintmask 0111111110100000
          -107 callgsubr
          hintmask 1011111111100000
          -122 39 -24 85 vhcurveto
          32 vmoveto
          -72 -17 21 93 hvcurveto
          hintmask 1011111110100000
          5 callsubr
          hintmask 1011111111100000
          93 callsubr
        </CharString>
        <CharString name="arrowboth">
          88 callgsubr
          310 192 rmoveto
          -43 95 rlineto
          348 hlineto
          -42 -95 134 callgsubr
          -348 hlineto
          43 96 -255 -113 rlineto
          endchar
        </CharString>
        <CharString name="arrowdown">
          63 688 -20 hstem
          181 34 vstem
          198 -85 rmoveto
          112 255 -95 -43 rlineto
          561 -34 -561 vlineto
          -96 43 rlineto
          endchar
        </CharString>
        <CharString name="arrowdown.ss01">
          13 171 285 hstem
          30 285 vstem
          173 171 rmoveto
          142 285 rlineto
          -285 hlineto
          endchar
        </CharString>
        <CharString name="arrowleft">
          88 callgsubr
          257 287 rmoveto
          571 34 -571 hlineto
          43 96 -245 -113 245 -112 rlineto
          endchar
        </CharString>
        <CharString name="arrowleft.ss01">
          31 201 285 hstem
          30 285 vstem
          315 201 rmoveto
          285 vlineto
          -285 -143 rlineto
          endchar
        </CharString>
        <CharString name="arrowright">
          88 callgsubr
          573 192 rmoveto
          134 callgsubr
          -560 -34 560 hlineto
          endchar
        </CharString>
        <CharString name="arrowright.ss01">
          31 201 285 hstem
          48 285 vstem
          48 201 rmoveto
          285 142 -285 143 rlineto
          endchar
        </CharString>
        <CharString name="arrowup">
          63 691 -20 hstem
          181 34 vstem
          181 -81 rmoveto
          34 559 hlineto
          95 -42 -112 255 -113 -255 96 42 rlineto
          endchar
        </CharString>
        <CharString name="arrowup.ss01">
          13 516 -20 hstem
          30 285 vstem
          30 231 rmoveto
          285 hlineto
          -142 285 rlineto
          endchar
        </CharString>
        <CharString name="arrowupdn">
          63 696 3 callsubr
          endchar
        </CharString>
        <CharString name="arrowupdnbse">
          63 -163 34 825 3 callsubr
          -30 -333 rmoveto
          285 34 -285 hlineto
          endchar
        </CharString>
        <CharString name="asciicircum">
          68 720 30 hstem
          60 280 vstem
          303 491 rmoveto
          37 hlineto
          -118 259 rlineto
          -44 hlineto
          -118 -259 rlineto
          37 hlineto
          103 229 rlineto
          endchar
        </CharString>
        <CharString name="asciitilde">
          71 260 -29 callgsubr
          60 27 229 27 hintmask 00000000
          hintmask 11110000
          343 355 rmoveto
          -27 hlineto
          -45 -6 -17 -29 -23 -24 12 10 -23 vhcurveto
          hintmask 01110000
          13 -30 -29 16 -30 hhcurveto
          -52 -10 -25 -70 hvcurveto
          27 hlineto
          45 6 17 29 24 25 -13 -11 23 vhcurveto
          hintmask 11110000
          -14 30 28 -13 29 hhcurveto
          52 10 25 70 hvcurveto
          endchar
        </CharString>
        <CharString name="asterisk">
          54 688 -20 hstem
          177 31.5 vstem
          205 510 rmoveto
          114 -72 19 32 -120 62 119 62 -18 33 -114 -74 7 135 rlineto
          -38 hlineto
          6 -135 -113 73 -19 -32 120 -63 -119 -61 18 -33 113 73 -6 -134 rlineto
          38 hlineto
          endchar
        </CharString>
        <CharString name="asterisk.ss02">
          485 -14 719 hstem
          35 747 vstem
          178 -14 rmoveto
          231 170 231 -170 -90 276 232 174 rlineto
          -288 hlineto
          -85 269 -87 -269 rlineto
          -287 hlineto
          234 -174 rlineto
          endchar
        </CharString>
        <CharString name="at">
          224 -108 34 142 32 -25 30 182 32 167 32 148 30 hstemhm
          55 34 83 35 140 35 85 34 hintmask 1011111111000000
          278 -108 rmoveto
          71 14 0 2 19 hvcurveto
          32 vlineto
          -18 -2 -32 -1 -54 -29 -24 1 -16 hflex1
          -117 13 -3 64 291 vvcurveto
          300 2 60 113 10 vhcurveto
          2 29 21 0 23 hhcurveto
          32 27 -1 -4 27 hvcurveto
          103 -14 1 -68 -285 vvcurveto
          -186 -11 -3 -22 vhcurveto
          -52 253 hlineto
          125 -16 35 -84 -38 -33 -4 -6 -20 vhcurveto
          -33 vlineto
          6 20 39 5 24 hhcurveto
          63 10 -15 -119 hvcurveto
          -37 vlineto
          2 -29 -47 2 -13 hhcurveto
          -67 -19 -32 -94 hvcurveto
          hintmask 1101111111000000
          -104 30 -21 65 30 39 6 62 11 vhcurveto
          4 hlineto
          hintmask 1011111111000000
          4 -61 rlineto
          72 hlineto
          55 19 9 210 349 -3 53 -220 -220 -3 -53 -349 -349 3 -53 220 hvcurveto
          hintmask 1101111111000000
          -12 208 rmoveto
          -48 -11 16 77 83 11 11 45 hvcurveto
          84 -33 hlineto
          -121 -20 -33 -61 vhcurveto
          endchar
        </CharString>
        <CharString name="atilde">
          -75 callsubr
          130 91 callsubr
          hintmask 1011111010000000
          293 -27 callsubr
          hintmask 1011010101000000
          -102 callgsubr
          hintmask 1011111010000000
          -92 callsubr
          hintmask 1011011001000000
          -139 31 callsubr
          hintmask 0111011001000000
          -107 callgsubr
          hintmask 1011011001000000
          -102 callsubr
          endchar
        </CharString>
        <CharString name="b">
          118 callgsubr
          hstemhm
          60 35 211 35 hintmask 10111000
          206 -8 rmoveto
          112 23 49 214 214 -22 49 -113 133 callgsubr
          hintmask 01111000
          -743 27 vlineto
          hintmask 10111000
          4 75 rlineto
          4 hlineto
          -73 17 46 -10 48 hhcurveto
          -6 32 rmoveto
          -53 -31 23 56 -11 hvcurveto
          -9 45 -1 47 60 vvcurveto
          62 2 47 9 45 vhcurveto
          53 11 30 24 97 callsubr
        </CharString>
        <CharString name="backslash">
          -95 -55 798 hstem
          30 177 vstem
          172 -55 rmoveto
          35 hlineto
          -142 798 rlineto
          -35 hlineto
          endchar
        </CharString>
        <CharString name="bar">
          135 callsubr
          -161 rmoveto
          35 904 -35 hlineto
          endchar
        </CharString>
        <CharString name="bar.ss02">
          166 80 callsubr
          -1 500 vstem
          -1 hmoveto
          500 696 -500 hlineto
          endchar
        </CharString>
        <CharString name="braceleft">
          -128 282 29 hstemhm
          20 45 21 35 hintmask 10100000
          158 -150 rmoveto
          36 hlineto
          -43 38 -30 73 64 vvcurveto
          121 vlineto
          77 -15 54 -41 17 vhcurveto
          5 vlineto
          41 17 15 54 77 vvcurveto
          121 vlineto
          64 30 73 43 38 vhcurveto
          -36 hlineto
          -42 -31 -30 -78 -78 vvcurveto
          -115 vlineto
          -63 -17 -67 -49 vhcurveto
          hintmask 11100000
          -29 vlineto
          hintmask 10100000
          50 16 -67 -63 hvcurveto
          -115 vlineto
          -78 30 -78 42 -31 vhcurveto
          endchar
        </CharString>
        <CharString name="braceright">
          -128 282 29 hstemhm
          83 35 21 45 hintmask 11000000
          10 -150 rmoveto
          36 hlineto
          42 31 30 78 78 vvcurveto
          115 vlineto
          63 16 67 50 vhcurveto
          hintmask 11100000
          29 vlineto
          hintmask 11000000
          -49 -17 67 63 hvcurveto
          115 vlineto
          78 -30 78 -42 31 vhcurveto
          -36 hlineto
          43 -38 30 -73 -64 vvcurveto
          -121 vlineto
          -77 15 -54 41 -17 vhcurveto
          -5 vlineto
          -41 -17 -15 -54 -77 vvcurveto
          -121 vlineto
          -64 -30 -73 -43 -38 vhcurveto
          endchar
        </CharString>
        <CharString name="bracketleft">
          -144 -150 35 823 35 hstem
          65 35 vstem
          65 -150 rmoveto
          103 33 hlineto
          -68 4 rlineto
          819 vlineto
          68 4 rlineto
          33 -103 vlineto
          endchar
        </CharString>
        <CharString name="bracketleft.ss02">
          39 callgsubr
          hvcurveto
          -348 vlineto
          endchar
        </CharString>
        <CharString name="bracketright">
          -144 -150 35 823 35 hstem
          88 35 vstem
          20 -150 rmoveto
          103 893 -103 -33 hlineto
          68 -4 rlineto
          -819 vlineto
          -68 -4 rlineto
          endchar
        </CharString>
        <CharString name="bracketright.ss02">
          65 80 callsubr
          0 352 vstem
          0 vmoveto
          352 348 hlineto
          119 callsubr
          vhcurveto
          endchar
        </CharString>
        <CharString name="breve">
          -149 602 28 hstem
          0 -40 callgsubr
          vstem
          183 -62 callgsubr
          endchar
        </CharString>
        <CharString name="brokenbar">
          135 callsubr
          390 rmoveto
          35 353 -35 hlineto
          -904 vmoveto
          35 353 -35 hlineto
          endchar
        </CharString>
        <CharString name="bullet">
          -71 268 151 hstem
          55 151 vstem
          206 342 rmoveto
          66 -4 11 -73 -70 -4 -11 -66 -63 4 -11 70 73 4 11 63 vhcurveto
          endchar
        </CharString>
        <CharString name="bullet.ss02">
          451 -8 60 155 60 -36 60 105 60 -35 60 155 60 hstemhm
          40 60 155 60 -36 60 105 60 -36 60 155 60 -11 callgsubr
          hintmask 0010111011000000
          392 421 rmoveto
          62 50 39 73 90 -76 73 -36 -37 -76 -73 -90 -73 50 -39 63 hvcurveto
          60 vmoveto
          -30 -23 18 34 57 36 46 17 17 35 -46 -57 -34 -23 -18 -29 hvcurveto
          -189 -250 rmoveto
          hintmask 0011001100000000
          73 39 50 63 62 -39 50 -73 -90 -73 -76 -36 hvcurveto
          hintmask 0010111011000000
          -37 73 -76 90 vhcurveto
          hintmask 0011001100110000
          378 hmoveto
          89 73 76 37 36 -73 76 -89 -74 -39 -50 -62 -63 39 -50 74 hvcurveto
          -378 60 rmoveto
          -57 -46 36 17 17 46 35 57 34 18 -23 -29 -30 -18 -23 -34 hvcurveto
          378 hmoveto
          -35 -18 23 30 29 18 23 35 56 46 -35 -17 -17 -46 -36 -56 hvcurveto
          hintmask 1100000011000000
          -189 -299 rmoveto
          36 76 73 90 73 -50 39 -62 -63 -50 -39 -73 -90 76 -73 37 hvcurveto
          60 vmoveto
          -17 -36 46 57 34 23 18 30 29 23 -18 -34 -57 -35 -46 -17 hvcurveto
          endchar
        </CharString>
        <CharString name="c">
          -30 -19 callsubr
          hstem
          45 35 vstem
          272 4 -83 callsubr
        </CharString>
        <CharString name="cacute">
          -30 73 callgsubr
          vstem
          136 -74 callsubr
          136 -606 -83 callsubr
        </CharString>
        <CharString name="cacute.loclPLK">
          -30 73 callgsubr
          56 53 vstem
          136 605 rmoveto
          -64 callsubr
          136 -606 -83 callsubr
        </CharString>
        <CharString name="caron">
          -152 605 30 hstem
          0 180 vstem
          67 605 -99 callgsubr
          endchar
        </CharString>
        <CharString name="caron.loclCSY">
          138 callgsubr
          39 vstem
          28 454 13 callgsubr
          endchar
        </CharString>
        <CharString name="ccaron">
          -30 81 callsubr
          30 hstem
          45 35 vstem
          128 605 -99 callgsubr
          211 -734 -83 callsubr
        </CharString>
        <CharString name="ccedilla">
          -30 -8 32 -6 -21 489 32 hstemhm
          45 35 hintmask 10110000
          187 24 rmoveto
          -92 -15 37 195 187 15 43 90 26 34 -5 -7 24 hvcurveto
          33 vlineto
          6 -21 -38 5 -29 hhcurveto
          -110 -26 -52 -212 hvcurveto
          hintmask 01110000
          -163 8 -75 82 -19 vhcurveto
          -55 -182 rlineto
          -5 40 vlineto
          hintmask 10110000
          42 183 rlineto
          -1 7 7 0 8 hhcurveto
          30 37 5 7 21 hvcurveto
          33 vlineto
          -8 -21 -36 -5 -28 hhcurveto
          endchar
        </CharString>
        <CharString name="ccircumflex">
          -30 -8 146 callgsubr
          vstem
          61 605 rmoveto
          27 hlineto
          63 108 -44 callgsubr
          211 -606 -83 callsubr
        </CharString>
        <CharString name="cdotaccent">
          -30 -19 callsubr
          151 61 hstem
          45 35 50 41 vstem
          130 36 callgsubr
          142 -726 -83 callsubr
        </CharString>
        <CharString name="cedilla">
          -208 -190 198 hstem
          20 84 vstem
          20 76 callsubr
        </CharString>
        <CharString name="cent">
          2 13 -21 74 35 483 112 -111 35 76 -20 hstemhm
          50 37 93 34 hintmask 11011110
          289 114 rmoveto
          -25 -7 -21 -5 -29 -1 rrcurveto
          484 vlineto
          24 -1 26 -4 22 -7 rrcurveto
          35 vlineto
          -17 5 -27 5 -28 2 rrcurveto
          76 -34 -77 vlineto
          -103 -5 -27 -53 -219 vvcurveto
          -192 11 -79 119 -5 vhcurveto
          -74 34 74 vlineto
          34 2 18 5 23 6 rrcurveto
          -202 265 rmoveto
          hintmask 11100110
          187 14 47 79 6 vhcurveto
          -484 vlineto
          hintmask 11011110
          -80 5 -13 51 188 vvcurveto
          endchar
        </CharString>
        <CharString name="circumflex">
          -152 713 30 hstem
          0 180 vstem
          605 vmoveto
          27 hlineto
          63 108 -44 callgsubr
          endchar
        </CharString>
        <CharString name="colon">
          -180 0 65 380 65 hstem
          54 44 vstem
          54 138 callsubr
          -510 vmoveto
          -64 callgsubr
          endchar
        </CharString>
        <CharString name="comma">
          -180 -101 21 80 65 hstem
          72 26 vstem
          28 -80 rmoveto
          70 callsubr
        </CharString>
        <CharString name="copyright">
          158 -8 26 136 29 322 29 136 26 hstem
          70 28 76 30 188 28 vstem
          245 -8 rmoveto
          165 10 44 308 308 -10 44 -165 125 callgsubr
          hvcurveto
          26 38 callsubr
          16 136 rmoveto
          15 18 2 3 12 hvcurveto
          29 vlineto
          -3 -12 -16 -2 -13 hhcurveto
          -55 -6 17 144 144 6 17 55 12 16 -2 -3 12 hvcurveto
          28 vlineto
          4 -9 -18 2 -17 hhcurveto
          -74 -13 -26 -164 -167 13 -23 74 hvcurveto
          endchar
        </CharString>
        <CharString name="currency">
          180 18 -21 76 32 479 32 76 -20 21 -20 hstemhm
          113 141 callsubr
          hintmask 11101110
          69 -3 rmoveto
          95 95 rlineto
          -14 21 29 -5 42 hhcurveto
          42 30 5 15 21 hvcurveto
          95 -96 23 23 -96 95 rlineto
          24 39 4 70 124 vvcurveto
          119 -4 68 -24 38 vhcurveto
          hintmask 11110110
          96 96 -22 23 -96 -96 rlineto
          15 -21 -30 5 -42 hhcurveto
          -42 -29 -5 -14 -21 hvcurveto
          hintmask 11101110
          -96 96 rlineto
          hintmask 11110110
          -23 -23 96 -96 rlineto
          -24 -38 -4 -69 -119 vvcurveto
          -125 4 -70 25 -38 vhcurveto
          -96 -96 rlineto
          210 86 rmoveto
          -102 -6 37 206 198 6 38 102 102 6 -38 -198 -206 -6 -37 -102 hvcurveto
          endchar
        </CharString>
        <CharString name="d">
          118 callgsubr
          64 callgsubr
          hintmask 10111000
          7 callgsubr
          hintmask 01111000
          -43 callgsubr
          hintmask 10111000
          81 callgsubr
          vhcurveto
          6 32 -66 callgsubr
          endchar
        </CharString>
        <CharString name="dagger">
          -58 21 -21 469 30 189 -20 hstem
          118 31 vstem
          121 hmoveto
          25 hlineto
          6 466 137 callsubr
          -6 186 rlineto
          -25 hlineto
          -6 -186 117 callgsubr
          endchar
        </CharString>
        <CharString name="daggerdbl">
          -58 21 -21 189 30 250 30 189 -20 hstemhm
          115 37 -34 31 hintmask 11110100
          121 hmoveto
          hintmask 11111000
          25 hlineto
          6 186 137 callsubr
          rlineto
          244 vlineto
          137 callsubr
          rlineto
          hintmask 11110100
          -6 186 rlineto
          hintmask 11111000
          -25 hlineto
          -6 -186 117 callgsubr
          -244 vlineto
          117 callgsubr
          endchar
        </CharString>
        <CharString name="dcaron">
          118 callgsubr
          170 -20 64 callgsubr
          42 39 hintmask 10111110
          7 callgsubr
          hintmask 01111110
          -43 callgsubr
          hintmask 10111110
          81 callgsubr
          vhcurveto
          176 462 13 callgsubr
          -182 -575 -66 callgsubr
          endchar
        </CharString>
        <CharString name="dcroat">
          118 callgsubr
          138 32 64 callgsubr
          hintmask 10111100
          380 688 rmoveto
          -54 55 -35 -55 -116 -32 116 -212 -4 hlineto
          54 -14 -34 20 -59 54 callgsubr
          81 callgsubr
          48 46 10 73 17 hvcurveto
          4 hlineto
          hintmask 01111100
          4 -75 rlineto
          27 656 54 hlineto
          hintmask 10111100
          -99 -556 rmoveto
          -53 -11 -31 -23 -53 hhcurveto
          -51 callsubr
          88 57 30 -24 -62 13 hvcurveto
          7 -36 2 -47 -48 vvcurveto
          -74 -1 -47 -9 -48 vhcurveto
          endchar
        </CharString>
        <CharString name="degree">
          -57 397 31 237 31 hstem
          50 34 107 34 vstem
          138 42 callsubr
          31 vmoveto
          -54 0 24 94 94 0 25 54 53 0 -25 -94 -94 0 -24 -53 hvcurveto
          endchar
        </CharString>
        <CharString name="dialog">
          473 80 callgsubr
          59 60 567 60 vstem
          306 -212 rmoveto
          213 212 rlineto
          227 688 -687 -688 247 60 -187 568 567 -568 -192 hlineto
          -188 -187 rlineto
          endchar
        </CharString>
        <CharString name="dieresis">
          -69 669 61 hstem
          26 44 callsubr
          vstem
          26 669 -84 callgsubr
          endchar
        </CharString>
        <CharString name="divide">
          128 65 52 120 32 120 52 hstem
          209 42 vstem
          209 389 rmoveto
          42 52 -42 hlineto
          -149 -204 53 callsubr
          149 -204 rmoveto
          42 52 -42 hlineto
          endchar
        </CharString>
        <CharString name="dollar">
          31 13 -21 75 33 224 35.5 -24 35 214.5 35 76 -20 hstemhm
          50 36 83 34 74 36 hintmask 1101111110000000
          313 215 rmoveto
          hintmask 1110111110000000
          109 -17 22 -62 11 vhcurveto
          -31 5 rlineto
          223 vlineto
          31 -1 41 -5 21 -6 rrcurveto
          34 vlineto
          -20 7 -39 5 -34 1 rrcurveto
          76 -34 -77 vlineto
          -82 -6 -37 -41 -104 vvcurveto
          hintmask 1101111110000000
          -84 18 -35 59 -10 vhcurveto
          42 -7 rlineto
          -232 vlineto
          -47 1 -42 5 -20 7 rrcurveto
          -34 vlineto
          25 -7 48 -4 36 -1 rrcurveto
          -75 34 76 vlineto
          71 6 39 37 104 vvcurveto
          -174 158 rmoveto
          -39 6 -14 11 86 vvcurveto
          84 33 23 50 3 vhcurveto
          -218 vlineto
          34 -267 rmoveto
          hintmask 1110111110000000
          225 vlineto
          24 -4 rlineto
          38 -6 12 -8 -93 vvcurveto
          hintmask 1101111110000000
          -78 -25 -31 -49 -5 vhcurveto
          endchar
        </CharString>
        <CharString name="dotaccent">
          -249 669 61 hstem
          21 41 vstem
          21 36 callgsubr
          endchar
        </CharString>
        <CharString name="dotbelowcomb">
          -127 65 hstem
          -98 44 vstem
          -98 -127 -79 callsubr
        </CharString>
        <CharString name="dotlessi">
          13 callsubr
          142 callgsubr
          60 hmoveto
          -7 callgsubr
          endchar
        </CharString>
        <CharString name="e">
          -41 callgsubr
          33 callsubr
          321 256 -107 callsubr
          endchar
        </CharString>
        <CharString name="eacute">
          -41 callgsubr
          87 138 33 callsubr
          252 738 rmoveto
          -90 callgsubr
          -5 23 vlineto
          119 -349 -107 callsubr
          endchar
        </CharString>
        <CharString name="ebreve">
          -41 callgsubr
          84 28 hstemhm
          45 35 11 -40 callgsubr
          12 35 hintmask 00000000
          hintmask 11111111
          182 602 rmoveto
          91 1 59 82 hvcurveto
          -33 hlineto
          -75 -1 -38 -58 -57 -1 38 75 vhcurveto
          -33 hlineto
          -82 0 -59 91 vhcurveto
          hintmask 11111001
          139 -346 -107 callsubr
          endchar
        </CharString>
        <CharString name="ecaron">
          -41 callgsubr
          87 30 33 callsubr
          206 605 rmoveto
          67 -46 callgsubr
          -27 vlineto
          -63 -108 -63 108 rlineto
          -27 -5 hlineto
          67 -73 callsubr
          161 -349 -107 callsubr
          endchar
        </CharString>
        <CharString name="ecircumflex">
          126 callsubr
          33 callsubr
          186 45 callsubr
          198 -349 -107 callsubr
          endchar
        </CharString>
        <CharString name="edieresis">
          -41 callgsubr
          151 61 hstemhm
          45 35 3 44 callsubr
          -8 35 hintmask 00000000
          hintmask 11110110
          124 730 48 callsubr
          hintmask 11111001
          27 -413 -107 callsubr
          endchar
        </CharString>
        <CharString name="edotaccent">
          -41 callgsubr
          151 61 hstem
          45 35 82 41 83 35 vstem
          203 730 rmoveto
          -41 -61 41 hlineto
          118 -413 -107 callsubr
          endchar
        </CharString>
        <CharString name="egrave">
          -41 callgsubr
          87 138 33 callsubr
          203 605 -42 callsubr
          141 -349 -107 callsubr
          endchar
        </CharString>
        <CharString name="eight">
          66 116 callsubr
          hstemhm
          45 142 callsubr
          199 -60 callgsubr
        </CharString>
        <CharString name="eight.dnom">
          -84 -4 28 153 28 149 28 hstemhm
          29 28 callsubr
          hintmask 11110010
          124 -4 -1 callgsubr
          hintmask 11101100
          -51 callgsubr
          hintmask 11110010
          32 callgsubr
          hintmask 11101100
          -45 callsubr
          hintmask 11110010
          -50 callsubr
        </CharString>
        <CharString name="eight.numr">
          -84 304 28 153 28 -11 11 149 28 hstemhm
          29 28 callsubr
          hintmask 11011001
          124 304 rmoveto
          79 16 33 72 hvcurveto
          hintmask 10111001
          65 -16 16 -30 10 vhcurveto
          2 vlineto
          hintmask 10110110
          -51 callgsubr
          hintmask 10111001
          -30 -10 -16 -16 -65 vvcurveto
          hintmask 11011001
          -72 16 -33 79 vhcurveto
          hintmask 11010110
          -45 callsubr
          hintmask 11011001
          -50 callsubr
        </CharString>
        <CharString name="eight.tnum">
          68 116 callsubr
          hstemhm
          46 142 callsubr
          200 -60 callgsubr
        </CharString>
        <CharString name="ellipsis">
          124 0 65 hstem
          54 44 108 44 108 44 vstem
          54 hmoveto
          -64 callgsubr
          152 -65 -76 callgsubr
          152 -65 -79 callsubr
        </CharString>
        <CharString name="emacron">
          -41 callgsubr
          189 36 hstemhm
          45 35 20 165 21 35 hintmask 00000000
          hintmask 11111110
          265 743 139 callsubr
          hintmask 11111010
          56 -451 -107 callsubr
          endchar
        </CharString>
        <CharString name="emdash">
          469 287 34 hstem
          60 681 vstem
          60 287 rmoveto
          681 34 -681 hlineto
          endchar
        </CharString>
        <CharString name="endash">
          68 287 34 hstem
          60 280 vstem
          60 287 rmoveto
          280 34 -280 hlineto
          endchar
        </CharString>
        <CharString name="eng">
          68 callgsubr
          209 518 rmoveto
          -81 -23 -41 -42 -10 hvcurveto
          -4 hlineto
          hintmask 11011100
          -39 callsubr
          hintmask 11101100
          -56 callsubr
          -418 vlineto
          -45 -5 -12 -56 vhcurveto
          -30 vlineto
          66 30 5 92 hvcurveto
          413 vlineto
          85 callgsubr
          -105 vhcurveto
          endchar
        </CharString>
        <CharString name="eogonek">
          34 -196 32 156 -21 callsubr
          hstem
          45 35 124 34 48 35 vstem
          321 256 rmoveto
          204 -8 58 -122 -141 -5 -65 -199 -210 20 -52 128 23 27 2 3 21 vhcurveto
          -35 -35 -25 -47 -41 vvcurveto
          -38 21 -32 -45 callgsubr
          -35 -12 21 24 43 41 57 30 24 hvcurveto
          -101 callgsubr
          endchar
        </CharString>
        <CharString name="equal">
          112 callgsubr
          60 322 53 callsubr
          -202 vmoveto
          340 32 -340 hlineto
          endchar
        </CharString>
        <CharString name="estimated">
          96 -8 34 297 34 305 34 hstemhm
          50 36 253 36 -33 36 hintmask 11110100
          86 323 rmoveto
          292 21 hlineto
          304 -18 48 -146 -146 -18 -48 -304 -304 18 -48 146 vhcurveto
          hintmask 11111000
          119 34 32 176 8 hvcurveto
          -36 hlineto
          -164 -8 -29 -10 -88 hhcurveto
          hintmask 11110100
          -106 -21 14 283 -1 hvcurveto
          128 339 rmoveto
          107 20 -15 -290 1 hvcurveto
          -256 hlineto
          290 1 20 15 107 hhcurveto
          endchar
        </CharString>
        <CharString name="eth">
          -8 callsubr
          177 -20 hstemhm
          45 35 55 185 -24 35 hintmask 11110100
          112 callsubr
          -4 49 hvcurveto
          hintmask 11111000
          -6 79 -21 97 -32 75 53 8 rcurveline
          32 vlineto
          -68 -11 -11 23 -13 19 -13 17 rlinecurve
          -40 -4 hlineto
          14 -19 13 -20 12 -22 -79 -12 rcurveline
          -32 vlineto
          94 15 24 -51 16 -56 12 -58 rlinecurve
          -4 -2 rlineto
          128 callsubr
          hvcurveto
          hintmask 11110100
          -211 8 -51 135 vhcurveto
          22 callsubr
        </CharString>
        <CharString name="exclam">
          -172 89 callsubr
          hintmask 11010000
          66 173 rmoveto
          -28 callgsubr
          hintmask 11100000
          -8 -173 -79 callsubr
        </CharString>
        <CharString name="exclam.case">
          -172 89 callsubr
          hintmask 11010000
          66 173 rmoveto
          -28 callgsubr
          hintmask 11100000
          -8 -173 -79 callsubr
        </CharString>
        <CharString name="exclam.ss02">
          462 -8 45 72 82 460 45 hstem
          45 45 273 68 273 45 vstem
          397 -8 rmoveto
          194 158 158 194 194 -158 158 -194 -194 -158 -158 -194 -194 158 -158 194 hvcurveto
          45 vmoveto
          -169 -138 138 169 169 138 138 169 169 138 -138 -169 -169 -138 -138 -169 hvcurveto
          -20 231 rmoveto
          40 hlineto
          8 55 6 88 69 vvcurveto
          99 -68 -99 vlineto
          -69 6 -88 8 -55 vhcurveto
          -14 -159 rmoveto
          68 82 -68 hlineto
          endchar
        </CharString>
        <CharString name="exclamdbl">
          -26 89 callsubr
          105 44 -41 38 hintmask 11010100
          66 173 rmoveto
          -28 callgsubr
          146 hmoveto
          -28 callgsubr
          hintmask 11101000
          -154 -173 -76 callgsubr
          146 -65 -79 callsubr
        </CharString>
        <CharString name="exclamdown">
          -172 445 65 hstemhm
          58 44 -41 38 hintmask 00000000
          hintmask 11000000
          58 138 callsubr
          hintmask 10100000
          27 callgsubr
        </CharString>
        <CharString name="exclamdown.case">
          -172 21 -21 515 -20 128 65 hstemhm
          58 44 -41 38 hintmask 00000000
          hintmask 11110000
          58 623 -76 callgsubr
          hintmask 11101000
          27 callgsubr
        </CharString>
        <CharString name="f">
          -111 72 callsubr
          vstem
          85 hmoveto
          -52 callsubr
          endchar
        </CharString>
        <CharString name="f_f">
          110 72 callsubr
          186 35 vstem
          85 hmoveto
          -52 callsubr
          221 -478 rmoveto
          -52 callsubr
          endchar
        </CharString>
        <CharString name="fi">
          44 75 callgsubr
          172 61 -30 30 hstemhm
          85 35 161 35 hintmask 11011100
          85 hmoveto
          -52 callsubr
          hintmask 11101100
          194 204 rmoveto
          39 61 -39 hlineto
          2 57 callgsubr
        </CharString>
        <CharString name="five">
          16 -8 34 334 34 260 34 hstem
          50 36 191 36 vstem
          45 -22 callgsubr
        </CharString>
        <CharString name="five.dnom">
          -114 -4 109 callgsubr
          31 -53 callsubr
          endchar
        </CharString>
        <CharString name="five.numr">
          -114 304 109 callgsubr
          339 -53 callsubr
          endchar
        </CharString>
        <CharString name="five.tnum">
          68 -8 34 334 34 260 34 hstem
          74 36 191 36 vstem
          69 -22 callgsubr
        </CharString>
        <CharString name="fiveeighths">
          245 102 callsubr
          99 29 21 28 118 29 128 29 hstemhm
          32 30 103 31 162 28 callsubr
          hintmask 0000000000000000
          hintmask 0111111111001000
          123 hmoveto
          -10 callsubr
          -364 -349 -53 callsubr
          hintmask 1010111111001000
          424 -343 -1 callgsubr
          hintmask 1010111110110000
          -51 callgsubr
          hintmask 1010111111001000
          32 callgsubr
          hintmask 1010111110110000
          -45 callsubr
          hintmask 1010111111001000
          -50 callsubr
        </CharString>
        <CharString name="fl">
          44 72 callsubr
          161 35 vstem
          85 hmoveto
          -52 callsubr
          196 -478 rmoveto
          121 callsubr
          endchar
        </CharString>
        <CharString name="florin">
          -67 -190 30 638 32 203 30 hstemhm
          -105 395 -163.5 35.5 hintmask 11110000
          283 713 rmoveto
          7 30 rlineto
          hintmask 11101000
          -76 -43 -12 -205 -43 hvcurveto
          -3 -16 rlineto
          -66 hlineto
          -7 -32 rlineto
          65 hlineto
          -114 -541 rlineto
          -83 -18 -20 -14 -63 hhcurveto
          -7 -30 rlineto
          76 42 12 192 41 hvcurveto
          98 464 rlineto
          81 hlineto
          7 32 rlineto
          -81 hlineto
          6 26 rlineto
          hintmask 11110000
          163 34 21 14 63 hhcurveto
          endchar
        </CharString>
        <CharString name="four">
          50 124 callgsubr
          247 35 vstem
          246 127 callsubr
          -180 hlineto
          157 478 rlineto
          -37 hlineto
          -157 -481 rlineto
          -31 216 vlineto
          endchar
        </CharString>
        <CharString name="four.dnom">
          -96 0 121 -29 29 hstemhm
          149 29 hintmask 00000000
          hintmask 10100000
          147 hmoveto
          31 hlineto
          hintmask 01100000
          92 37 29 -37 150 -27 vlineto
          56 callsubr
        </CharString>
        <CharString name="four.numr">
          -96 400 29 hstem
          149 29 vstem
          147 308 rmoveto
          31 92 37 29 -37 150 -27 hlineto
          56 callsubr
        </CharString>
        <CharString name="four.ss01">
          50 21 -21 176 34 478 -20 hstem
          247 35 vstem
          282 210 rmoveto
          478 -33 vlineto
          -219 -481 rlineto
          -31 216 -176 36 176 65 34 vlineto
          -279 hmoveto
          179 391 rlineto
          -391 vlineto
          endchar
        </CharString>
        <CharString name="four.tnum">
          68 124 callgsubr
          270 35 vstem
          269 127 callsubr
          -199 hlineto
          177 478 rlineto
          -38 hlineto
          -177 -481 rlineto
          -31 236 vlineto
          endchar
        </CharString>
        <CharString name="fraction">
          -221 105 callgsubr
          -95 301 vstem
          -95 hmoveto
          -10 callsubr
          endchar
        </CharString>
        <CharString name="g">
          -38 callgsubr
          462 32 -8 -20 64 callgsubr
          hintmask 11101100
          164 -196 17 callgsubr
          hintmask 11011100
          428 -27 vlineto
          hintmask 11101100
          -97 callsubr
        </CharString>
        <CharString name="g_tilde.loclGUA">
          -38 callgsubr
          462 32 -8 -20 158 -29 callgsubr
          45 35 -1 -15 callgsubr
          -15 57 callsubr
          hintmask 1110111010000000
          86 callsubr
          hintmask 1110010101000000
          -102 callgsubr
          hintmask 1110111010000000
          -92 callsubr
          hintmask 1101011001000000
          -142 -939 17 callgsubr
          428 -27 vlineto
          hintmask 1110011001000000
          -4 -75 rlineto
          -4 hlineto
          73 -17 -46 10 -48 54 callgsubr
          -214 22 -49 113 59 34 20 54 14 hvcurveto
          4 -4 hlineto
          -178 -15 -48 -115 -38 -45 2 2 148 callgsubr
          hintmask 1101011001000000
          -2 38 41 -1 33 hhcurveto
          hintmask 1110011001000000
          22 220 -26 callsubr
          92 53 31 -23 -65 13 hvcurveto
          7 -36 1 -47 -60 vvcurveto
          -62 -2 -47 -8 -41 vhcurveto
          -57 -12 -30 -24 -53 hhcurveto
          endchar
        </CharString>
        <CharString name="gbreve">
          -38 callgsubr
          462 32 -8 -20 112 28 hstemhm
          45 35 21 -40 callgsubr
          7 57 callsubr
          hintmask 1110111100000000
          284 -62 callgsubr
          -120 -939 rmoveto
          hintmask 1101110010000000
          141 21 68 210 hvcurveto
          428 -27 vlineto
          hintmask 1110110010000000
          -4 -75 rlineto
          -4 hlineto
          73 -17 -46 10 -48 54 callgsubr
          -214 22 -49 113 59 34 20 54 14 hvcurveto
          4 -4 hlineto
          -178 -15 -48 -115 -38 -45 2 2 148 callgsubr
          hintmask 1110111100000000
          -2 38 41 -1 33 hhcurveto
          hintmask 1110110010000000
          22 220 -26 callsubr
          92 53 31 -23 -65 13 hvcurveto
          7 -36 1 -47 -60 vvcurveto
          -62 -2 -47 -8 -41 vhcurveto
          -57 -12 -30 -24 -53 hhcurveto
          endchar
        </CharString>
        <CharString name="gcaron">
          -38 callgsubr
          462 32 -8 -20 115 30 64 callgsubr
          hintmask 11101110
          170 605 -99 callgsubr
          61 -934 17 callgsubr
          hintmask 11011110
          428 -27 vlineto
          hintmask 11101110
          -97 callsubr
        </CharString>
        <CharString name="gcircumflex">
          -38 callgsubr
          462 32 -8 -20 223 30 64 callgsubr
          hintmask 11101110
          103 605 rmoveto
          27 hlineto
          63 108 -44 callgsubr
          61 -806 17 callgsubr
          hintmask 11011110
          428 -27 vlineto
          hintmask 11101110
          -97 callsubr
        </CharString>
        <CharString name="gcommaaccent">
          -38 callgsubr
          462 32 -8 -20 116 65 80 21 hstemhm
          45 35 90 26 95 35 hintmask 1110111110000000
          240 59 callgsubr
          -76 -947 17 callgsubr
          hintmask 1101111110000000
          428 -27 vlineto
          hintmask 1110111110000000
          -97 callsubr
        </CharString>
        <CharString name="gdotaccent">
          -38 callgsubr
          462 32 -8 -20 179 61 hstemhm
          45 35 92 41 78 35 hintmask 11101111
          172 36 callgsubr
          -8 -926 17 callgsubr
          hintmask 11011111
          428 -27 vlineto
          hintmask 11101111
          -97 callsubr
        </CharString>
        <CharString name="germandbls">
          66 0 32 395 32 259 32 hstemhm
          60 34 97 74 45 35 -30 35 hintmask 11111010
          213 hmoveto
          119 18 60 186 134 -28 51 -57 13 hvcurveto
          4 vlineto
          hintmask 11111100
          55 13 25 35 92 vvcurveto
          127 -48 35 -95 -95 -47 -39 -148 vhcurveto
          -563 34 571 vlineto
          109 29 38 79 79 29 -33 -96 -91 -26 -39 -68 vhcurveto
          -25 -32 hlineto
          hintmask 11111010
          25 hlineto
          76 23 -42 -148 -183 -13 -22 -101 hvcurveto
          -34 -32 hlineto
          endchar
        </CharString>
        <CharString name="grave">
          119 callgsubr
          73 vstem
          50 605 -85 callgsubr
          endchar
        </CharString>
        <CharString name="gravecomb">
          605 138 hstem
          -73 73 vstem
          -23 605 -85 callgsubr
          endchar
        </CharString>
        <CharString name="gravecomb.case">
          750 138 hstem
          -73 73 vstem
          -23 750 -85 callgsubr
          endchar
        </CharString>
        <CharString name="greater">
          129 76 354 hstem
          366 34 vstem
          60 76 41 callsubr
          endchar
        </CharString>
        <CharString name="greaterequal">
          129 45 32 hstem
          366 34 vstem
          60 193 41 callsubr
          1 -185 53 callsubr
          endchar
        </CharString>
        <CharString name="guillemotleft">
          -44 -4 callgsubr
          hstem
          25 213 70 callgsubr
          184 -205 rmoveto
          29 hlineto
          -71 205 71 206 rlineto
          -29 hlineto
          -83 -206 rlineto
          endchar
        </CharString>
        <CharString name="guillemotright">
          -44 -4 callgsubr
          hstem
          50 213 vstem
          50 99 60 callsubr
          71 -206 rlineto
          30 -205 60 callsubr
          72 -206 rlineto
          endchar
        </CharString>
        <CharString name="guilsinglleft">
          -145 -4 callgsubr
          hstem
          25 112 70 callgsubr
          endchar
        </CharString>
        <CharString name="guilsinglright">
          -145 -4 callgsubr
          hstem
          50 112 vstem
          50 99 60 callsubr
          71 -206 rlineto
          endchar
        </CharString>
        <CharString name="h">
          21 callsubr
          hstem
          60 35 200 3 callgsubr
          endchar
        </CharString>
        <CharString name="hbar">
          21 callsubr
          138 32 hstem
          140 callsubr
          vstem
          209 518 rmoveto
          -81 -20 -42 -27 -9 hvcurveto
          -4 207 116 32 -116 55 -35 -55 -54 -32 54 -656 35 264 hlineto
          -56 callsubr
          -315 35 320 vlineto
          85 callgsubr
          -105 vhcurveto
          endchar
        </CharString>
        <CharString name="hcircumflex">
          21 callsubr
          373 30 hstem
          140 callsubr
          vstem
          -12 783 rmoveto
          27 hlineto
          63 108 -44 callgsubr
          307 -788 rmoveto
          88 callsubr
          -20 -42 -27 -9 vhcurveto
          -4 294 -35 -743 35 264 hlineto
          -33 callgsubr
        </CharString>
        <CharString name="hookabovecomb">
          611 -21 callgsubr
          -123 29 56 30 vstem
          -123 611 rmoveto
          29 hlineto
          18 2 3 37 12 vhcurveto
          9 3 rlineto
          -106 callgsubr
          endchar
        </CharString>
        <CharString name="hookabovecomb.case">
          743 -21 callgsubr
          -123 29 56 30 vstem
          -123 -96 callsubr
          endchar
        </CharString>
        <CharString name="house">
          80 0 33 618 45 0 -20 hstemhm
          25 36 290 36 hintmask 10111000
          25 hmoveto
          362 361 hlineto
          -167 335 rlineto
          -28 hlineto
          -167 -335 rlineto
          36 -328 rmoveto
          322 vlineto
          hintmask 11011000
          145 296 145 -296 rlineto
          -322 vlineto
          endchar
        </CharString>
        <CharString name="hungarumlaut">
          -115 611 119 hstem
          23 171 vstem
          23 611 -74 callgsubr
          endchar
        </CharString>
        <CharString name="hyphen">
          60 callgsubr
        </CharString>
        <CharString name="i">
          13 callsubr
          192 61 142 callgsubr
          58 35 callgsubr
          2 57 callgsubr
        </CharString>
        <CharString name="i.loclTRK">
          13 callsubr
          179 61 hstemhm
          57 41 -38 35 hintmask 00000000
          hintmask 11110000
          57 36 callgsubr
          hintmask 11101000
          3 -730 -16 callsubr
        </CharString>
        <CharString name="iacute">
          -177 21 50 callsubr
          142 callgsubr
          60 -74 callsubr
          -610 vmoveto
          -7 callgsubr
          endchar
        </CharString>
        <CharString name="iacute_j.loclNLD">
          147 callgsubr
          115 138 hstem
          60 35 120 35 vstem
          63 -74 callsubr
          155 -5 -100 callsubr
          -158 -610 -20 callsubr
          94 -700 -60 callsubr
        </CharString>
        <CharString name="ibreve">
          13 callsubr
          112 28 hstem
          -14 33 41 35 41 33 vstem
          169 -62 callgsubr
          -109 57 callgsubr
        </CharString>
        <CharString name="icircumflex">
          13 callsubr
          223 30 142 callgsubr
          -12 605 rmoveto
          27 hlineto
          63 108 -44 callgsubr
          72 -610 -16 callsubr
        </CharString>
        <CharString name="idieresis">
          13 callsubr
          179 61 hstem
          -28 41 47 35 47 41 vstem
          -28 669 -84 callgsubr
          -82 -730 -16 callsubr
        </CharString>
        <CharString name="igrave">
          -177 21 50 callsubr
          142 callgsubr
          72 605 -85 callgsubr
          38 -738 -16 callsubr
        </CharString>
        <CharString name="ij">
          69 callgsubr
          58 35 callgsubr
          155 -61 rmoveto
          39 61 -39 hlineto
          -153 -743 -20 callsubr
          94 -700 -60 callsubr
        </CharString>
        <CharString name="imacron">
          13 callsubr
          217 36 hstemhm
          -5 165 -100 35 hintmask 00000000
          hintmask 11110000
          -5 707 -48 callsubr
          hintmask 11101000
          65 57 callgsubr
        </CharString>
        <CharString name="infinity">
          344 57 32 334 32 hstem
          50 35 506 35 vstem
          182 57 rmoveto
          96 37 67 78 23 hvcurveto
          -78 23 37 -67 96 hhcurveto
          100 32 71 128 127 -32 72 -100 -96 -37 -68 -77 -23 hvcurveto
          77 -23 -37 68 -96 hhcurveto
          -100 -32 -72 -127 -128 32 -71 100 hvcurveto
          32 vmoveto
          -75 -22 63 104 104 22 63 75 89 28 -81 -86 20 hvcurveto
          -86 -20 -28 -81 -89 hhcurveto
          312 hmoveto
          -89 -28 81 86 -20 hvcurveto
          86 20 28 81 89 hhcurveto
          75 22 -63 -104 -104 -22 -63 -75 hvcurveto
          endchar
        </CharString>
        <CharString name="integral">
          -13 -190 30 826 30 hstemhm
          121 36 5 35 hintmask 11010000
          60 -190 rmoveto
          83 54 6 83 4 0 5 -4 72 hvcurveto
          hintmask 11100000
          -35 604 -1 26 rlineto
          44 23 12 79 vhcurveto
          30 vlineto
          -83 -55 -7 -82 hvcurveto
          1 -30 rlineto
          hintmask 11010000
          36 -601 4 -80 rlineto
          -44 -23 -12 -79 vhcurveto
          endchar
        </CharString>
        <CharString name="iogonek">
          -177 -196 32 185 132 callgsubr
          179 61 hstemhm
          -2 34 25 41 -38 35 hintmask 00000000
          hintmask 11110100
          57 730 rmoveto
          -61 41 61 vlineto
          hintmask 11111010
          -66 -848 rmoveto
          hintmask 11110010
          40 36 55 27 23 vhcurveto
          510 -35 -510 vlineto
          hintmask 11111010
          -36 -35 -26 -49 -40 vvcurveto
          -41 21 -31 -45 callgsubr
          -35 -12 20 26 hvcurveto
          endchar
        </CharString>
        <CharString name="itilde">
          13 callsubr
          158 -29 callgsubr
          -36 27 69 35 69 27 hintmask 00000000
          hintmask 11111110
          191 743 -12 callgsubr
          -131 57 callgsubr
        </CharString>
        <CharString name="j">
          120 callgsubr
          192 61 142 callgsubr
          58 35 callgsubr
          -59 -933 -60 callsubr
        </CharString>
        <CharString name="jcircumflex">
          120 callgsubr
          223 30 142 callgsubr
          -12 605 rmoveto
          27 hlineto
          63 108 -44 callgsubr
          11 -800 -60 callsubr
        </CharString>
        <CharString name="k">
          2 21 144 callgsubr
          1 callgsubr
          466 -35 -743 35 243 61 hlineto
          endchar
        </CharString>
        <CharString name="kcommaaccent">
          2 -2 callgsubr
          83 144 callgsubr
          81 26 1 callgsubr
          466 -35 -743 35 243 61 hlineto
          -24 -450 rmoveto
          70 callsubr
        </CharString>
        <CharString name="kgreenlandic">
          2 21 144 callgsubr
          1 callgsubr
          233 -35 -510 35 243 61 hlineto
          endchar
        </CharString>
        <CharString name="l">
          -177 21 -21 142 callgsubr
          101 callsubr
          endchar
        </CharString>
        <CharString name="lacute">
          -177 21 -21 783 138 142 callgsubr
          63 783 -100 callsubr
          -3 -788 rmoveto
          121 callsubr
          endchar
        </CharString>
        <CharString name="lcaron">
          -177 105 callgsubr
          60 35 42 39 vstem
          101 callsubr
          65 -289 13 callgsubr
          endchar
        </CharString>
        <CharString name="lcommaaccent">
          -177 -2 callgsubr
          83 -21 hstemhm
          60 35 -8 26 hintmask 11110000
          101 callsubr
          hintmask 11101000
          -17 -950 44 callgsubr
          hintmask 11110000
          -46 -65 hlineto
          hintmask 11101000
          27 callsubr
          endchar
        </CharString>
        <CharString name="ldot">
          -138 21 -21 267 65 hstem
          60 35 54 44 vstem
          101 callsubr
          89 -476 -79 callsubr
        </CharString>
        <CharString name="leftOpenDialog">
          293 80 callgsubr
          0 60 vstem
          626 628 rmoveto
          60 -566 vlineto
          -60 -688 59 hlineto
          567 60 -566 568 hlineto
          endchar
        </CharString>
        <CharString name="less">
          129 76 354 hstem
          61 34 vstem
          401 76 58 callsubr
          endchar
        </CharString>
        <CharString name="lessequal">
          129 45 32 hstem
          61 34 vstem
          401 193 58 callsubr
          -1 -303 53 callsubr
          endchar
        </CharString>
        <CharString name="logicalnot">
          127 238 34 hstem
          365 34 vstem
          365 83 rmoveto
          34 189 -339 -34 305 hlineto
          endchar
        </CharString>
        <CharString name="longs">
          -121 72 callsubr
          vstem
          85 hmoveto
          35 631 hlineto
          68 18 14 63 vhcurveto
          30 vlineto
          -76 -40 -12 -106 hvcurveto
          -115 -65 -32 65 vlineto
          endchar
        </CharString>
        <CharString name="lozenge">
          46 0 43 -22 -21 646 43 0 -20 hstemhm
          50 278 hintmask 01011000
          171 hmoveto
          36 hlineto
          121 344 -121 345 rlineto
          -36 hlineto
          -121 -345 rlineto
          hintmask 10101000
          139 -301 rmoveto
          -103 301 103 302 103 -302 rlineto
          endchar
        </CharString>
        <CharString name="lslash">
          -172 21 -21 142 callgsubr
          60 hmoveto
          35 341 hlineto
          53 19 rlineto
          35 vlineto
          -53 -19 rlineto
          367 -35 -379 vlineto
          -48 -17 rlineto
          -35 vlineto
          48 17 rlineto
          endchar
        </CharString>
        <CharString name="m">
          275 21 130 callsubr
          hstemhm
          60 35 193 35 193 35 hintmask 11011100
          516 hmoveto
          79 callsubr
          -103 -77 -25 -41 -42 -9 vhcurveto
          -5 hlineto
          60 -12 -26 23 -73 hhcurveto
          -78 -23 -42 -41 -8 hvcurveto
          -5 hlineto
          hintmask 10111100
          -39 callsubr
          hintmask 11011100
          123 1 99 105 74 13 -23 -148 vhcurveto
          -315 35 264 vlineto
          134 0 88 105 75 13 -23 -148 vhcurveto
          endchar
        </CharString>
        <CharString name="macron">
          -47 707 36 hstem
          60 165 vstem
          60 707 -48 callsubr
          endchar
        </CharString>
        <CharString name="minus">
          128 237 32 hstem
          60 340 vstem
          60 237 53 callsubr
          endchar
        </CharString>
        <CharString name="minute">
          138 callgsubr
          42.5 vstem
          33 394 62 callgsubr
          endchar
        </CharString>
        <CharString name="multiply">
          70 112 282 hstem
          60 282 vstem
          202 230 rmoveto
          117 -118 23 23 -118 117 118 118 -22 23 -118 -118 -119 119 -23 -23 119 -119 -118 -118 23 -22 rlineto
          endchar
        </CharString>
        <CharString name="n">
          54 21 128 callgsubr
          hintmask 11011000
          295 hmoveto
          -54 callsubr
          hintmask 10111000
          -39 callsubr
          hintmask 11011000
          -33 callgsubr
        </CharString>
        <CharString name="nacute">
          54 21 130 callsubr
          115 138 hstemhm
          140 callsubr
          hintmask 11011100
          178 -74 callsubr
          117 -610 rmoveto
          -54 callsubr
          hintmask 10111100
          -39 callsubr
          hintmask 11011100
          -33 callgsubr
        </CharString>
        <CharString name="nacute.loclPLK">
          54 21 130 callsubr
          115 138 hstemhm
          60 35 83 53 64 35 hintmask 11011110
          178 605 rmoveto
          -64 callsubr
          117 -610 rmoveto
          -54 callsubr
          hintmask 10111110
          -39 callsubr
          hintmask 11011110
          -33 callgsubr
        </CharString>
        <CharString name="napostrophe">
          54 21 130 callsubr
          87 21 80 65 hstemhm
          47 26 -13 91 callgsubr
          hintmask 00000000
          hintmask 11011101
          3 598 rmoveto
          -88 callsubr
          292 -598 rmoveto
          98 callsubr
          vhcurveto
          hintmask 11011011
          -81 -23 -41 -42 -10 hvcurveto
          -4 hlineto
          hintmask 10111011
          -39 callsubr
          hintmask 11011011
          -33 callgsubr
        </CharString>
        <CharString name="ncaron">
          54 21 130 callsubr
          115 30 hstemhm
          140 callsubr
          hintmask 11011100
          170 605 -99 callgsubr
          192 -738 rmoveto
          -54 callsubr
          hintmask 10111100
          -39 callsubr
          hintmask 11011100
          -33 callgsubr
        </CharString>
        <CharString name="ncommaaccent">
          54 -2 callgsubr
          83 130 callsubr
          hstemhm
          60 35 107 26 67 35 hintmask 11110111
          295 hmoveto
          -54 callsubr
          hintmask 11101111
          -39 callsubr
          hintmask 11110111
          -56 callsubr
          -137 -522 rmoveto
          70 callsubr
        </CharString>
        <CharString name="nine">
          56 -8 34 265 34 337 34 hstem
          40 35 228 35 vstem
          168 -8 rmoveto
          85 43 28 74 26 hvcurveto
          16 44 0 90 126 vvcurveto
          116 0 80 -10 42 vhcurveto
          80 -20 -38 24 -88 -27 callgsubr
        </CharString>
        <CharString name="nine.dnom">
          -92 -4 96 callgsubr
          -4 -40 callsubr
        </CharString>
        <CharString name="nine.numr">
          -92 304 96 callgsubr
          304 -40 callsubr
        </CharString>
        <CharString name="nine.ss01">
          60 21 -21 290 34 338 34 hstem
          40 36 235 36 vstem
          133 hmoveto
          39 hlineto
          112 147 63 150 180 vvcurveto
          179 -37 40 -117 -118 -35 -52 -152 -167 32 -35 107 70 28 13 28 15 vhcurveto
          4 -1 -34 -149 -80 -109 -49 -67 rlinecurve
          61 319 rmoveto
          -84 -34 0 169 135 24 34 94 88 29 -22 -167 -128 -37 -21 -80 hvcurveto
          endchar
        </CharString>
        <CharString name="nine.tnum">
          68 -8 34 265 34 337 34 hstem
          48 35 228 35 vstem
          176 -8 rmoveto
          88 43 30 67 22 hvcurveto
          17 55 0 89 121 vvcurveto
          141 0 87 -18 40 vhcurveto
          57 -25 -39 17 -74 -27 callgsubr
        </CharString>
        <CharString name="notequal">
          112 callgsubr
          193 152 rmoveto
          207 32 -190 hlineto
          73 138 rlineto
          117 32 -100 hlineto
          67 126 rlineto
          -36 hlineto
          -67 -126 rlineto
          -204 -32 187 hlineto
          -73 -138 rlineto
          -114 -32 97 hlineto
          -64 -122 rlineto
          36 hlineto
          endchar
        </CharString>
        <CharString name="ntilde">
          54 21 130 callsubr
          158 -29 callgsubr
          60 35 -10 -15 callgsubr
          -17 57 callsubr
          hintmask 1101110100000000
          312 -27 callsubr
          hintmask 1100101010000000
          -102 callgsubr
          hintmask 1101110100000000
          -92 callsubr
          hintmask 1100110010000000
          -17 -743 rmoveto
          -54 callsubr
          hintmask 1010110010000000
          -39 callsubr
          hintmask 1100110010000000
          -33 callgsubr
        </CharString>
        <CharString name="numbersign">
          66 21 -21 202 34 206 34 212 -20 hstem
          35 328 vstem
          206 hmoveto
          35 hlineto
          27 202 rlineto
          73 34 -68 hlineto
          29 206 rlineto
          61 34 -56 134 callsubr
          -112 134 callsubr
          -68 -34 64 hlineto
          -29 -206 rlineto
          -57 -34 52 hlineto
          -28 -202 rlineto
          35 hlineto
          27 202 rlineto
          113 hlineto
          34 240 rmoveto
          -29 -206 rlineto
          -113 hlineto
          29 206 rlineto
          endchar
        </CharString>
        <CharString name="o">
          113 callsubr
          188 -8 -104 callgsubr
          endchar
        </CharString>
        <CharString name="oacute">
          24 callsubr
          165 -74 callsubr
          23 -618 -104 callgsubr
          endchar
        </CharString>
        <CharString name="oacute.loclPLK">
          44 73 callgsubr
          93 53 70 35 vstem
          173 605 rmoveto
          -64 callsubr
          15 -618 -104 callgsubr
          endchar
        </CharString>
        <CharString name="obreve">
          -8 callsubr
          84 28 hstemhm
          45 35 16 -40 callgsubr
          17 35 hintmask 00000000
          hintmask 11111110
          279 -62 callgsubr
          hintmask 11110010
          -91 -751 -104 callgsubr
          endchar
        </CharString>
        <CharString name="ocircumflex">
          44 -8 146 callgsubr
          216 35 vstem
          100 605 rmoveto
          27 hlineto
          63 108 -44 callgsubr
          88 -618 -104 callgsubr
          endchar
        </CharString>
        <CharString name="odieresis">
          -8 callsubr
          151 61 hstemhm
          45 35 5 44 callsubr
          0 35 hintmask 00000000
          hintmask 11101100
          85 669 -84 callgsubr
          hintmask 11110010
          -67 -738 -104 callgsubr
          endchar
        </CharString>
        <CharString name="oe">
          285 -36 callgsubr
          82 callgsubr
          206 35 vstem
          572 256 rmoveto
          204 -8 58 -122 -74 -36 -20 -49 -19 vhcurveto
          54 -18 -35 15 -72 -18 callgsubr
          74 35 16 57 17 hvcurveto
          -55 20 38 -18 72 hhcurveto
          42 49 6 7 25 hvcurveto
          -83 callgsubr
          -384 -219 rmoveto
          -98 callgsubr
          252 462 rmoveto
          76 21 -19 -171 hvcurveto
          -21 -206 vlineto
          183 11 28 98 vhcurveto
          endchar
        </CharString>
        <CharString name="ogonek">
          -234 -196 32 hstem
          0 34 vstem
          98 -195 rmoveto
          8 callgsubr
        </CharString>
        <CharString name="ograve">
          24 callsubr
          181 605 -85 callgsubr
          57 -746 -104 callgsubr
          endchar
        </CharString>
        <CharString name="ohorn">
          18 callgsubr
          hstemhm
          90 callsubr
          12 31 hintmask 00000000
          hintmask 10101110
          343 608 8 callsubr
          hintmask 10011100
          -47 callsubr
          hintmask 11001100
          84 callgsubr
          vhcurveto
          hintmask 11001110
          -14 callsubr
          hintmask 10101110
          35 vlineto
          hintmask 10011100
          -186 -584 rmoveto
          -98 callgsubr
          endchar
        </CharString>
        <CharString name="ohungarumlaut">
          -8 callsubr
          93 119 35 callsubr
          137 611 -74 callgsubr
          -49 -624 -104 callgsubr
          endchar
        </CharString>
        <CharString name="omacron">
          -8 callsubr
          189 36 hstemhm
          45 35 25 165 26 35 hintmask 00000000
          hintmask 11111100
          105 707 -48 callsubr
          hintmask 11110100
          83 -751 -104 callgsubr
          endchar
        </CharString>
        <CharString name="one">
          -121 105 callgsubr
          105 36 vstem
          105 hmoveto
          36 688 -27 hlineto
          -84 -58 rlineto
          -38 vlineto
          75 44 rlineto
          endchar
        </CharString>
        <CharString name="one.dnom">
          -193 21 -21 hstem
          65 31 vstem
          65 hmoveto
          98 callgsubr
        </CharString>
        <CharString name="one.numr">
          -193 308 378 hstem
          65 31 vstem
          65 308 rmoveto
          98 callgsubr
        </CharString>
        <CharString name="one.tnum">
          68 103 callsubr
          198 36 vstem
          77 hmoveto
          269 34 -112 654 -27 hlineto
          -127 -69 rlineto
          -36 vlineto
          118 59 rlineto
          -608 -121 vlineto
          endchar
        </CharString>
        <CharString name="oneeighth">
          165 102 callsubr
          149 28 264 130 callgsubr
          133 28 callsubr
          hintmask 0000000000000000
          hintmask 0111011100100000
          4 callsubr
          hintmask 1011101100100000
          51 callsubr
          259 -650 -1 callgsubr
          hintmask 1011011011000000
          -51 callgsubr
          hintmask 1011011100100000
          -30 -10 -16 -16 -65 vvcurveto
          hintmask 1011101100100000
          -72 16 -33 79 vhcurveto
          hintmask 1011011011000000
          -45 callsubr
          hintmask 1011011100100000
          -50 callsubr
        </CharString>
        <CharString name="onehalf">
          148 0 30 318 30 268 130 callgsubr
          150 31 94 31 hintmask 11011110
          320 688 rmoveto
          -270 -688 rlineto
          31 hlineto
          270 688 rlineto
          -258 -370 rmoveto
          31 370 -24 hlineto
          hintmask 11101110
          51 callsubr
          212 -581 rmoveto
          37 -1 19 20 14 vhcurveto
          18 -57 callsubr
          30 -125 vlineto
          endchar
        </CharString>
        <CharString name="onequarter">
          104 0 114 -30 30 532 130 callgsubr
          202 31 hintmask 00000000
          hintmask 10011100
          4 callsubr
          hintmask 10101100
          51 callsubr
          233 -646 rmoveto
          31 hlineto
          hintmask 01011100
          30 callgsubr
        </CharString>
        <CharString name="ordfeminine">
          -44 314 32 152 31 137 30 hstem
          30 32 137 33 vstem
          121 314 rmoveto
          26 31 11 39 19 hvcurveto
          4 hlineto
          4 -44 rlineto
          27 238 hlineto
          113 -21 25 -80 -31 -33 -4 -6 -23 vhcurveto
          -30 vlineto
          6 30 34 4 17 hhcurveto
          63 11 -13 -99 hvcurveto
          -28 vlineto
          1 -25 -41 2 -20 hhcurveto
          -65 -18 -25 -82 -89 28 -19 63 hvcurveto
          32 vmoveto
          -47 -12 13 63 66 12 10 43 hvcurveto
          82 -24 hlineto
          -34 -1 -34 -9 -18 vhcurveto
          -28 -15 -19 -14 -34 hhcurveto
          endchar
        </CharString>
        <CharString name="ordmasculine">
          -31 314 31 321 30 hstem
          45 33 146 32 vstem
          151 314 rmoveto
          96 9 34 156 158 -9 34 -96 -97 -9 -34 -158 -156 9 -34 97 hvcurveto
          31 vmoveto
          -69 -4 24 135 136 4 26 69 69 4 -26 -136 -135 -4 -24 -69 hvcurveto
          endchar
        </CharString>
        <CharString name="orn.001">
          5 223 240 hstem
          48 241 vstem
          289 341 rmoveto
          105 -6 17 -117 -112 -6 -17 -105 -102 6 -16 112 117 6 16 102 vhcurveto
          endchar
        </CharString>
        <CharString name="orn.002">
          217 234 60 100 60 hstem
          44 121 callgsubr
          100 60 vstem
          210 -30 callgsubr
          63 101 -18 callsubr
          121 87 69 callsubr
          -29 -21 22 28 29 21 21 29 28 22 -21 -29 -28 -22 -22 -28 hvcurveto
          endchar
        </CharString>
        <CharString name="orn.003">
          83 46 596 hstem
          45 121 callgsubr
          vstem
          211 -30 callgsubr
          63 101 -18 callsubr
          63 101 17 callsubr
          endchar
        </CharString>
        <CharString name="orn.007">
          5 222 241 hstem
          48 241 vstem
          168 222 rmoveto
          67 54 53 67 67 -54 54 -67 -67 -53 -54 -67 -67 53 -53 67 hvcurveto
          endchar
        </CharString>
        <CharString name="orn.010">
          462 80 callsubr
          45 704 vstem
          397 hmoveto
          352 348 hlineto
          119 callsubr
          -207 -145 -143 -205 -204 145 -144 207 vhcurveto
          endchar
        </CharString>
        <CharString name="orn.015">
          233 80 callgsubr
          -1 187 107 callsubr
          187 60 -187 hlineto
          187 -272 rmoveto
          213 212 rlineto
          167 60 -192 hlineto
          -188 -187 rlineto
          endchar
        </CharString>
        <CharString name="orn.016">
          233 80 callgsubr
          -1 567 107 callsubr
          567 60 -567 hlineto
          endchar
        </CharString>
        <CharString name="orn.017">
          -272 105 callgsubr
          0 60 vstem
          0 vmoveto
          60 688 -60 hlineto
          endchar
        </CharString>
        <CharString name="orn.018">
          460 46 596 hstem
          45 121 callgsubr
          102 121 callgsubr
          vstem
          211 -30 callgsubr
          370 hmoveto
          99 62 67 110 126 vvcurveto
          125 -67 111 -99 62 vhcurveto
          -32 -51 rlineto
          82 -51 56 -92 -104 vvcurveto
          -105 -55 -91 -83 -52 vhcurveto
          -275 51 -18 callsubr
          244 hmoveto
          65 41 44 73 83 vvcurveto
          83 -44 73 -66 41 vhcurveto
          -32 -51 rlineto
          49 -31 33 -54 -61 vvcurveto
          -62 -33 -53 -48 -31 vhcurveto
          -149 50 17 callsubr
          118 hmoveto
          23 callgsubr
        </CharString>
        <CharString name="orn.019">
          217 234 60 100 60 hstem
          44 60 100 121 callgsubr
          vstem
          338 -23 callgsubr
          -89 36 69 callsubr
          -28 -22 22 28 29 22 21 28 29 21 -21 -29 -28 -21 -22 -29 hvcurveto
          endchar
        </CharString>
        <CharString name="orn.020">
          83 46 596 hstem
          70 121 callgsubr
          vstem
          204 -23 callgsubr
          -31 50 rmoveto
          23 callgsubr
        </CharString>
        <CharString name="orn.021">
          421 696 -20 hstem
          45 663 vstem
          376 -116 rmoveto
          193 100 139 201 179 vvcurveto
          188 -149 144 -183 -183 -148 -144 -188 -178 139 -202 192 -100 vhcurveto
          endchar
        </CharString>
        <CharString name="orn.022">
          57 220 246 hstem
          48 301 vstem
          171 220 rmoveto
          98 80 83 40 40 -80 83 -98 -81 -42 -55 -68 -68 42 -55 81 hvcurveto
          endchar
        </CharString>
        <CharString name="oslash">
          113 callsubr
          331 565 -53 callgsubr
        </CharString>
        <CharString name="oslashacute">
          24 callsubr
          246 738 rmoveto
          -90 callgsubr
          -5 23 vlineto
          135 -40 -53 callgsubr
        </CharString>
        <CharString name="otilde">
          -8 callsubr
          130 -29 callgsubr
          45 35 -5 -15 callgsubr
          -6 35 hintmask 00000000
          hintmask 11111010
          302 -27 callsubr
          hintmask 11010101
          -102 callgsubr
          hintmask 11111010
          -92 callsubr
          hintmask 11011001
          -114 -751 -104 callgsubr
          endchar
        </CharString>
        <CharString name="p">
          54 -19 callsubr
          -8 -20 hstemhm
          60 35 211 35 hintmask 11011000
          29 callsubr
          -48 -46 -10 -73 -17 hvcurveto
          -4 hlineto
          hintmask 10111000
          111 callgsubr
          hlineto
          140 -486 rmoveto
          -53 -30 24 67 -14 hvcurveto
          -6 31 -2 47 62 vvcurveto
          hintmask 11011000
          60 1 47 8 42 vhcurveto
          59 12 31 23 53 hhcurveto
          92 14 -29 -202 hvcurveto
          hintmask 10111000
          -202 -14 -29 -92 vhcurveto
          endchar
        </CharString>
        <CharString name="paragraph">
          2 688 -20 hstem
          162 36 40 36 vstem
          162 -144 rmoveto
          36 832 -36 hlineto
          -126 -6 -31 -203 -203 6 -29 126 hvcurveto
          76 -366 rmoveto
          36 832 -36 hlineto
          endchar
        </CharString>
        <CharString name="parenleft">
          -137 -150 893 142 callgsubr
          151 -150 rmoveto
          34 hlineto
          -60 115 -30 54 278 vvcurveto
          278 30 53 60 115 vhcurveto
          -34 hlineto
          -67 -126 -24 -58 -262 vvcurveto
          -263 22 -58 69 -126 vhcurveto
          endchar
        </CharString>
        <CharString name="parenleft.ss02">
          39 callgsubr
          -204 145 -144 207 hvcurveto
          endchar
        </CharString>
        <CharString name="parenright">
          -137 -150 893 hstem
          100 35 vstem
          10 -150 rmoveto
          34 hlineto
          69 126 22 58 263 vvcurveto
          262 -24 58 -67 126 vhcurveto
          -34 hlineto
          60 -115 30 -53 -278 vvcurveto
          -278 -30 -54 -60 -115 vhcurveto
          endchar
        </CharString>
        <CharString name="parenright.ss02">
          65 80 callsubr
          0 352 vstem
          0 vmoveto
          207 145 144 204 119 callsubr
          hvcurveto
          endchar
        </CharString>
        <CharString name="partialdiff">
          113 callsubr
          112 callsubr
          -5 67 hvcurveto
          -8 105 -41 143 -61 73 rrcurveto
          -40 -4 hlineto
          54 -70 33 -89 19 -96 -4 -2 rcurveline
          128 callsubr
          -211 8 -51 135 hvcurveto
          22 callsubr
        </CharString>
        <CharString name="percent">
          177 -8 31 -2 -21 311 31 4 31 288 31 -8 -20 hstemhm
          50 31 106 30 75 31 106 30 -11 callgsubr
          hintmask 0110101111000000
          134 311 56 callgsubr
          -30 -311 rmoveto
          31 hlineto
          hintmask 1010011111000000
          270 688 rlineto
          -31 hlineto
          -240 -346 rmoveto
          -43 -10 11 150 hvcurveto
          hintmask 1001101111000000
          143 callsubr
          vhcurveto
          hintmask 1010011111000000
          -150 -10 -11 -43 vhcurveto
          hintmask 1001101111000000
          242 -350 56 callgsubr
          31 vmoveto
          -43 -10 11 150 143 callsubr
          -150 -10 -11 -43 hvcurveto
          endchar
        </CharString>
        <CharString name="period">
          -180 0 65 hstem
          54 44 vstem
          54 hmoveto
          -64 callgsubr
          endchar
        </CharString>
        <CharString name="periodcentered">
          -180 267 65 hstem
          54 44 vstem
          54 267 -79 callsubr
        </CharString>
        <CharString name="perthousand">
          290 -8 30 -1 -21 299 30 30 30 277 30 -8 -20 hstemhm
          50 29 92 29 41 29 92 29 31 29 92 29 -11 callgsubr
          hintmask 0101101100000000
          125 359 rmoveto
          4 callgsubr
          -54 -359 rmoveto
          29 hlineto
          hintmask 0001011100000000
          270 688 rlineto
          -29 hlineto
          -216 -299 rmoveto
          -38 -8 7 131 hvcurveto
          hintmask 0000101100000000
          131 8 8 38 38 8 -8 -131 vhcurveto
          hintmask 0001011100000000
          -131 -8 -7 -38 vhcurveto
          hintmask 1010000011110000
          191 -397 rmoveto
          4 callgsubr
          181 hmoveto
          4 callgsubr
          -181 30 rmoveto
          59 callsubr
          181 hmoveto
          59 callsubr
          endchar
        </CharString>
        <CharString name="pi">
          52 75 callgsubr
          hstem
          60 35 194 35 vstem
          289 hmoveto
          35 510 -264 -510 35 478 194 hlineto
          endchar
        </CharString>
        <CharString name="plus">
          128 237 32 hstem
          214 31 vstem
          214 83 68 callsubr
          endchar
        </CharString>
        <CharString name="plusminus">
          128 45 32 277 32 hstem
          214 31 vstem
          214 200 68 callsubr
          -154 -309 53 callsubr
          endchar
        </CharString>
        <CharString name="product">
          102 654 34 hstem
          141 callgsubr
          vstem
          334 -190 rmoveto
          35 878 -304 -878 35 844 234 hlineto
          endchar
        </CharString>
        <CharString name="q">
          54 -19 callsubr
          -8 -20 64 callgsubr
          hintmask 11011000
          291 -190 rmoveto
          35 hlineto
          hintmask 10111000
          700 -27 vlineto
          hintmask 11011000
          -4 -75 rlineto
          -4 hlineto
          73 -17 -46 10 -48 hhcurveto
          -112 -23 -49 -214 -214 22 -49 113 59 34 20 54 14 hvcurveto
          4 hlineto
          -105 -42 -26 callsubr
          92 53 31 -23 -53 11 hvcurveto
          9 -48 1 -47 -60 vvcurveto
          -62 -2 -47 -7 -37 vhcurveto
          -61 -13 -30 -24 -53 hhcurveto
          endchar
        </CharString>
        <CharString name="question">
          -42 callgsubr
        </CharString>
        <CharString name="question.case">
          -42 callgsubr
        </CharString>
        <CharString name="questiondown">
          -81 -186 34 597 65 hstemhm
          45 36 82 44 -40 36 hintmask 00000000
          hintmask 11110000
          163 445 14 callgsubr
          hintmask 11101000
          26 callsubr
          hintmask 11110000
          -103 16 -56 104 vhcurveto
          endchar
        </CharString>
        <CharString name="questiondown.case">
          -51 -8 34 489 -20 128 65 hstemhm
          45 36 82 44 -40 36 hintmask 00000000
          hintmask 11111000
          163 623 14 callgsubr
          hintmask 11110100
          26 callsubr
          hintmask 11111000
          -103 16 -56 104 vhcurveto
          endchar
        </CharString>
        <CharString name="quotedbl">
          -112 454 234 hstemhm
          40 39 62 39 hintmask 00000000
          hintmask 11100000
          110 callgsubr
          109 -145 rmoveto
          23 hlineto
          8 145 rlineto
          89 -39 -89 vlineto
          endchar
        </CharString>
        <CharString name="quotedblbase">
          -80 -101 21 80 65 hstem
          72 26 74 26 vstem
          28 -80 rmoveto
          -88 callsubr
          100 hmoveto
          70 callsubr
        </CharString>
        <CharString name="quotedblleft">
          -107 522 65 80 21 hstem
          35 26 74 26 vstem
          35 522 15 callgsubr
          100 -75 15 callgsubr
          endchar
        </CharString>
        <CharString name="quotedblright">
          -107 522 21 80 65 hstem
          64 26 74 26 vstem
          20 543 rmoveto
          -88 callsubr
          100 hmoveto
          70 callsubr
        </CharString>
        <CharString name="quoteleft">
          -207 522 65 80 21 hstem
          35 26 vstem
          35 522 15 callgsubr
          endchar
        </CharString>
        <CharString name="quoteright">
          -207 522 21 80 65 hstem
          64 26 vstem
          20 543 rmoveto
          70 callsubr
        </CharString>
        <CharString name="quotesinglbase">
          -180 -101 21 80 65 hstem
          72 26 vstem
          28 -80 rmoveto
          70 callsubr
        </CharString>
        <CharString name="quotesingle">
          138 callgsubr
          39 vstem
          110 callgsubr
          endchar
        </CharString>
        <CharString name="r">
          52 callsubr
          hstemhm
          60 35 hintmask 11010000
          60 hmoveto
          -56 callgsubr
          hintmask 10110000
          106 callsubr
          endchar
        </CharString>
        <CharString name="racute">
          52 callsubr
          115 138 hstemhm
          60 35 hintmask 11011000
          100 -74 callsubr
          -40 -610 rmoveto
          -56 callgsubr
          hintmask 10111000
          106 callsubr
          endchar
        </CharString>
        <CharString name="radical">
          54 -106 48 hstem
          10 351 vstem
          177 -106 rmoveto
          43 hlineto
          141 876 rlineto
          -36 hlineto
          -129 -828 -111 372 -75 -37 12 -29 40 19 rlineto
          endchar
        </CharString>
        <CharString name="rcaron">
          52 callsubr
          115 30 hstemhm
          60 35 hintmask 11011000
          92 605 -99 callgsubr
          35 -738 rmoveto
          -56 callgsubr
          hintmask 10111000
          106 callsubr
          endchar
        </CharString>
        <CharString name="rcommaaccent">
          -102 -2 callgsubr
          83 -21 482 36 -8 -20 hstemhm
          60 35 -8 26 hintmask 11110100
          60 hmoveto
          -56 callgsubr
          hintmask 11101100
          106 callsubr
          hintmask 11110010
          -17 -717 44 callgsubr
          hintmask 11110100
          -46 -65 hlineto
          hintmask 11110010
          27 callsubr
          endchar
        </CharString>
        <CharString name="registered">
          158 -8 26 293 29 160 29 141 26 hstem
          70 28 72 30 97 30 65 28 vstem
          245 696 rmoveto
          125 callgsubr
          165 10 44 308 308 -10 44 -165 hvcurveto
          -678 38 callsubr
          82 404 rmoveto
          56 -2 51 -72 vhcurveto
          -83 -372 30 154 58 hlineto
          43 -154 rlineto
          31 hlineto
          -45 160 rlineto
          36 15 4 44 46 vvcurveto
          -78 -82 rmoveto
          -49 160 49 hlineto
          46 2 -29 -49 -52 -2 -30 -46 hvcurveto
          endchar
        </CharString>
        <CharString name="rightCloseDialog">
          291 80 callgsubr
          -1 187 378 60 vstem
          624 688 rmoveto
          -625 -60 565 -568 -190 hlineto
          -188 -187 rlineto
          -85 vlineto
          213 212 rlineto
          165 hlineto
          60 hlineto
          -438 60 rmoveto
          -187 -60 187 hlineto
          endchar
        </CharString>
        <CharString name="rightOpenDialog">
          292 80 callgsubr
          565 60 vstem
          625 688 rmoveto
          -626 -60 566 -568 -566 -60 566 hlineto
          60 hlineto
          endchar
        </CharString>
        <CharString name="ring">
          -171 620 123 callgsubr
          hstem
          0 33 95 33 vstem
          80 620 -86 callsubr
          endchar
        </CharString>
        <CharString name="s">
          -12 -19 callsubr
          hstem
          35 35 180 -37 callsubr
          endchar
        </CharString>
        <CharString name="sacute">
          -12 33 callgsubr
          35 35 180 35 vstem
          145 -74 callsubr
          8 -618 -96 callgsubr
          endchar
        </CharString>
        <CharString name="sacute.loclPLK">
          -12 33 callgsubr
          35 35 75 53 52 35 vstem
          145 605 rmoveto
          -64 callsubr
          8 -618 -96 callgsubr
          endchar
        </CharString>
        <CharString name="scaron">
          -12 81 callsubr
          30 hstem
          35 35 180 35 vstem
          140 605 -99 callgsubr
          80 -746 -96 callgsubr
          endchar
        </CharString>
        <CharString name="scedilla">
          -12 -19 callsubr
          hstem
          35 35 180 35 vstem
          285 133 rmoveto
          104 -17 23 -58 9 vhcurveto
          -90 14 rlineto
          -38 6 -12 10 81 vvcurveto
          87 37 19 52 43 46 -5 -8 20 vhcurveto
          33 vlineto
          7 -22 -42 5 -35 hhcurveto
          -81 -53 -24 -121 -80 17 -34 57 -9 hvcurveto
          91 -15 rlineto
          38 -6 12 -4 -92 vvcurveto
          -62 -12 -47 -76 -45 -50 5 7 -22 vhcurveto
          -33 vlineto
          21 -5 40 -5 36 -1 -53 -177 rcurveline
          -5 40 vlineto
          42 183 rlineto
          82 4 32 41 95 vvcurveto
          endchar
        </CharString>
        <CharString name="scircumflex">
          -12 -19 callsubr
          195 30 hstem
          35 35 180 35 vstem
          70 605 rmoveto
          27 hlineto
          63 108 -44 callgsubr
          83 -618 -96 callgsubr
          endchar
        </CharString>
        <CharString name="scommaaccent">
          -12 -2 callgsubr
          54 67 callgsubr
          hstem
          35 35 99 26 55 -37 callsubr
          -28 -199 rmoveto
          70 callsubr
        </CharString>
        <CharString name="second">
          -121 688 -20 hstem
          40 42.5 49.5 42.5 vstem
          33 394 62 callgsubr
          78 -294 62 callgsubr
          endchar
        </CharString>
        <CharString name="section">
          91 -171 34 237 16 292 16 238 34 hstemhm
          50 36 -2 37 181 37 -2 36 hintmask 10011001
          194 -171 rmoveto
          hintmask 11011010
          87 58 25 131 65 -12 30 -32 20 hvcurveto
          hintmask 11110101
          55 16 23 43 83 vvcurveto
          127 -23 11 -75 27 vhcurveto
          -102 37 rlineto
          -36 13 -16 13 77 vvcurveto
          94 41 21 56 44 50 -6 -8 24 vhcurveto
          35 vlineto
          8 -23 -44 5 -40 hhcurveto
          -87 -58 -25 -131 -65 12 -30 32 -21 hvcurveto
          hintmask 10111010
          -55 -16 -23 -42 -83 vvcurveto
          -127 23 -11 72 -26 vhcurveto
          105 -38 rlineto
          36 -13 16 -13 -77 vvcurveto
          -94 -41 -21 -56 -44 -50 6 8 -24 vhcurveto
          -35 vlineto
          hintmask 10011001
          -8 23 44 -5 40 hhcurveto
          hintmask 11111001
          75 287 rmoveto
          -4 -4 1 4 -13 hvcurveto
          -116 41 rlineto
          -27 10 -19 9 108 vvcurveto
          88 39 31 29 4 4 -1 -6 17 vhcurveto
          119 -42 rlineto
          20 -7 19 -10 -108 vvcurveto
          -88 -39 -30 -29 vhcurveto
          endchar
        </CharString>
        <CharString name="semicolon">
          -180 -101 21 80 65 380 65 hstemhm
          54 44 -26 26 hintmask 00000000
          hintmask 11110000
          54 138 callsubr
          hintmask 11101000
          -26 -590 rmoveto
          70 callsubr
        </CharString>
        <CharString name="seven">
          -14 131 callsubr
          20 273 vstem
          78 hmoveto
          36 hlineto
          179 659 rlineto
          29 -273 -34 236 vlineto
          endchar
        </CharString>
        <CharString name="seven.dnom">
          -134 21 -21 349 29 hstem
          13 170 vstem
          45 hmoveto
          49 callgsubr
          endchar
        </CharString>
        <CharString name="seven.numr">
          -134 657 29 hstem
          13 170 vstem
          45 308 rmoveto
          49 callgsubr
          endchar
        </CharString>
        <CharString name="seven.tnum">
          68 131 callsubr
          51 293 vstem
          109 hmoveto
          38 hlineto
          197 659 rlineto
          29 -293 -34 254 vlineto
          endchar
        </CharString>
        <CharString name="seveneighths">
          195 102 callsubr
          149 28 275 29 hstemhm
          13 170 125 28 callsubr
          hintmask 0000000000000000
          hintmask 0111111001000000
          73 hmoveto
          -10 callsubr
          -298 -380 rmoveto
          49 callgsubr
          hintmask 1011101001000000
          252 -661 -1 callgsubr
          hintmask 1011100110000000
          -51 callgsubr
          hintmask 1011101001000000
          32 callgsubr
          hintmask 1011100110000000
          -45 callsubr
          hintmask 1011101001000000
          -50 callsubr
        </CharString>
        <CharString name="six">
          56 -8 34 337 34 265 34 hstem
          50 35 228 35 vstem
          206 108 callgsubr
          -78 -24 -24 -28 -13 76 callgsubr
          -32 -44 6 -30 hhcurveto
          -94 -42 -34 -87 -22 hvcurveto
          -12 -45 0 -84 -112 vvcurveto
          -125 0 -82 9 -31 vhcurveto
          -83 25 23 callsubr
        </CharString>
        <CharString name="six.dnom">
          -92 -4 28 169 29 131 78 callsubr
          127 -4 -39 callgsubr
        </CharString>
        <CharString name="six.numr">
          -92 304 28 169 29 131 78 callsubr
          127 304 -39 callgsubr
        </CharString>
        <CharString name="six.ss01">
          60 -8 34 338 34 290 -20 hstem
          45 36 235 36 vstem
          199 -8 rmoveto
          118 35 52 152 167 -32 35 -107 -70 -28 -13 -28 -15 hvcurveto
          -4 1 23 101 48 102 92 122 rlinecurve
          5 -39 vlineto
          -120 -156 -55 -151 -170 vvcurveto
          -179 37 -40 117 vhcurveto
          -1 34 rmoveto
          -88 -29 22 167 128 37 21 80 84 34 0 -169 -135 -24 -34 -94 hvcurveto
          endchar
        </CharString>
        <CharString name="six.tnum">
          68 -8 34 337 34 265 34 hstem
          54 35 228 35 vstem
          210 108 callgsubr
          -63 -36 -15 -37 -16 76 callgsubr
          -30 -44 6 -32 hhcurveto
          -80 -43 -25 -67 -28 hvcurveto
          -19 -44 0 -93 -133 vvcurveto
          -125 0 -82 11 -36 vhcurveto
          -78 23 23 callsubr
        </CharString>
        <CharString name="slash">
          -95 -55 798 hstem
          30 177 vstem
          30 -55 rmoveto
          35 hlineto
          142 798 rlineto
          -35 hlineto
          endchar
        </CharString>
        <CharString name="space">
          -162 endchar
        </CharString>
        <CharString name="sterling">
          36 0 34 307 34 287 34 hstem
          85 36 vstem
          121 34 rmoveto
          307 150 34 -150 94 vlineto
          85 11 55 31 29 vhcurveto
          17 18 24 7 32 hhcurveto
          25 32 -4 -6 22 hvcurveto
          32 vlineto
          7 -19 -33 5 -26 hhcurveto
          -108 -45 -62 -174 hvcurveto
          -85 -45 -34 45 -307 -45 -34 283 34 vlineto
          endchar
        </CharString>
        <CharString name="summation">
          102 -190 34 810 34 hstem
          65 304 vstem
          65 -190 rmoveto
          304 34 -264 hlineto
          194 405 -194 405 rlineto
          264 34 -304 -30 hlineto
          194 -409 -194 -409 rlineto
          endchar
        </CharString>
        <CharString name="t">
          -117 75 callgsubr
          hstem
          85 35 vstem
          85 hmoveto
          6 callgsubr
          endchar
        </CharString>
        <CharString name="tbar">
          -117 21 -21 240 32 206 32 hstem
          85 35 vstem
          195 478 rmoveto
          32 -75 148 -35 -148 -65 -32 65 -206 -53 -32 53 -240 35 240 69 32 -69 206 vlineto
          endchar
        </CharString>
        <CharString name="tcaron">
          -117 75 callgsubr
          178 -20 hstem
          85 35 114 39 vstem
          222 454 13 callgsubr
          -149 -599 rmoveto
          6 callgsubr
          endchar
        </CharString>
        <CharString name="thorn">
          54 -19 callsubr
          hstem
          60 35 211 35 vstem
          29 callsubr
          133 callgsubr
          140 -719 rmoveto
          -53 -30 24 71 -15 hvcurveto
          -5 27 -2 47 62 vvcurveto
          60 1 47 7 37 vhcurveto
          64 13 31 23 97 callsubr
        </CharString>
        <CharString name="three">
          1 -8 34 306 34 296 34 hstemhm
          92 117 38 36 -31 36 hintmask 11101000
          137 -46 callsubr
        </CharString>
        <CharString name="three.dnom">
          -124 -4 29 152 29 89 callgsubr
          hintmask 11100100
          87 -4 111 callsubr
          hintmask 11101000
          -13 callsubr
          -61 -23 -12 -23 hvcurveto
          hintmask 11110100
          -45 -29 hlineto
          hintmask 11100100
          15 callsubr
          -5 22 30 -3 22 hhcurveto
          endchar
        </CharString>
        <CharString name="three.numr">
          -124 304 29 152 29 -12 12 89 callgsubr
          hintmask 11010010
          87 304 rmoveto
          77 16 37 68 hvcurveto
          hintmask 10110010
          61 -19 23 -29 7 vhcurveto
          2 vlineto
          hintmask 10110100
          -13 callsubr
          hvcurveto
          hintmask 11010100
          -61 -23 -12 -23 vhcurveto
          hintmask 11011010
          -45 -29 hlineto
          hintmask 11010010
          15 callsubr
          -5 22 30 -3 22 hhcurveto
          endchar
        </CharString>
        <CharString name="three.tnum">
          68 -8 34 306 34 296 34 hstemhm
          134 117 38 36 -31 36 hintmask 11101000
          179 -46 callsubr
        </CharString>
        <CharString name="threeeighths">
          235 102 callsubr
          99 29 21 28 103 29 -12 12 89 callgsubr
          168 28 callsubr
          hintmask 0000000000000000
          hintmask 1011101100110010
          87 304 111 callsubr
          hintmask 1010101101010010
          -13 callsubr
          hvcurveto
          hintmask 1010110101010010
          -61 -23 -12 -23 vhcurveto
          hintmask 1010110110110010
          -45 -29 hlineto
          hintmask 1011110100110010
          15 callsubr
          hintmask 1011101100110010
          -5 22 30 -3 22 hhcurveto
          hintmask 0110110100110010
          26 -304 rmoveto
          -10 callsubr
          hintmask 1010110100110010
          60 -692 -1 callgsubr
          hintmask 1010110100101100
          -51 callgsubr
          hintmask 1010110100110010
          32 callgsubr
          hintmask 1010110100101100
          -45 callsubr
          hintmask 1010110100110010
          -50 callsubr
        </CharString>
        <CharString name="threequarters">
          161 0 114 -30 30 196 30 151 30 145 30 -8 -20 hstemhm
          88 73 11 31 -28 31 177 31 hintmask 0111100011000000
          50 347 rmoveto
          -29 vlineto
          131 callgsubr
          61 callsubr
          hintmask 0111100101000000
          -47 callgsubr
          hintmask 0111101011000000
          -45 -30 hlineto
          hintmask 0111100011000000
          24 callgsubr
          hintmask 1011010011000000
          57 -347 rmoveto
          -10 callsubr
          6 -688 rmoveto
          31 hlineto
          hintmask 0111100011000000
          30 callgsubr
        </CharString>
        <CharString name="tilde">
          -105 648 -29 callgsubr
          0 -15 callgsubr
          hintmask 00000000
          hintmask 11110000
          227 -27 callsubr
          hintmask 01110000
          -102 callgsubr
          hintmask 11110000
          -92 callsubr
          endchar
        </CharString>
        <CharString name="tildecomb">
          648 -29 callgsubr
          -227 -15 callgsubr
          hintmask 00000000
          hintmask 11110000
          743 vmoveto
          -94 callsubr
          hintmask 01110000
          -102 callgsubr
          hintmask 11110000
          -92 callsubr
          endchar
        </CharString>
        <CharString name="tildecomb.case">
          793 -29 callgsubr
          -227 -15 callgsubr
          hintmask 00000000
          hintmask 11110000
          888 vmoveto
          -94 callsubr
          hintmask 01110000
          -102 callgsubr
          hintmask 11110000
          -92 callsubr
          endchar
        </CharString>
        <CharString name="trademark">
          121 382 41 244 21 hstem
          88 22 98 21 142 22 vstem
          88 382 rmoveto
          22 285 57 21 -137 -21 58 hlineto
          120 -285 rmoveto
          21 252 4 hlineto
          55 -252 rlineto
          25 hlineto
          54 252 rlineto
          4 -252 22 306 -34 hlineto
          -56 -265 rlineto
          -4 hlineto
          -57 265 rlineto
          -34 hlineto
          endchar
        </CharString>
        <CharString name="two">
          16 0 34 628 34 hstem
          40 35 198 35 vstem
          75 100 rmoveto
          65 0 35 8 21 vhcurveto
          6 16 8 10 14 10 42 30 -25 callgsubr
        </CharString>
        <CharString name="two.dnom">
          -115 0 136 callgsubr
          60 -33 callsubr
        </CharString>
        <CharString name="two.numr">
          -115 308 136 callgsubr
          368 -33 callsubr
        </CharString>
        <CharString name="two.tnum">
          68 0 34 628 34 hstem
          72 35 198 35 vstem
          107 100 rmoveto
          56 0 34 6 23 vhcurveto
          5 20 8 12 15 11 44 31 -25 callgsubr
        </CharString>
        <CharString name="u">
          -41 callsubr
          36 callsubr
          hintmask 00000000
          hintmask 01111000
          299 hmoveto
          27 510 -35 -264 hlineto
          hintmask 10111000
          -103 callsubr
          endchar
        </CharString>
        <CharString name="uacute">
          54 -8 32 -3 50 callsubr
          36 callsubr
          hintmask 10111100
          179 -74 callsubr
          hintmask 01111100
          120 -610 -48 callgsubr
          hintmask 10111100
          -103 callsubr
          endchar
        </CharString>
        <CharString name="ubreve">
          -41 callsubr
          112 94 callsubr
          284 -62 callgsubr
          hintmask 01111001
          15 145 callgsubr
          hintmask 10111001
          -103 callsubr
          endchar
        </CharString>
        <CharString name="ucircumflex">
          -41 callsubr
          223 30 36 callsubr
          hintmask 10111100
          102 605 rmoveto
          27 hlineto
          63 108 -44 callgsubr
          hintmask 01111100
          197 -610 -48 callgsubr
          hintmask 10111100
          -103 callsubr
          endchar
        </CharString>
        <CharString name="udieresis">
          -41 callsubr
          179 61 hstemhm
          56 35 -6 44 callsubr
          -5 35 hintmask 00000000
          hintmask 10110110
          85 669 -84 callgsubr
          hintmask 01111001
          44 -730 -48 callgsubr
          hintmask 10111001
          -103 callsubr
          endchar
        </CharString>
        <CharString name="ugrave">
          54 -8 32 -3 50 callsubr
          36 callsubr
          hintmask 10111100
          189 605 -85 callgsubr
          hintmask 01111100
          160 -738 -48 callgsubr
          hintmask 10111100
          -103 callsubr
          endchar
        </CharString>
        <CharString name="uhorn">
          50 callgsubr
          36 callsubr
          50 31 hintmask 10111100
          376 608 16 callsubr
          -264 hlineto
          -103 callsubr
          hintmask 01111100
          -26 callgsubr
          endchar
        </CharString>
        <CharString name="uhungarumlaut">
          67 callsubr
          142 611 -74 callgsubr
          hintmask 01111100
          57 -616 -48 callgsubr
          hintmask 10111100
          -103 callsubr
          endchar
        </CharString>
        <CharString name="umacron">
          -41 callsubr
          217 36 hstemhm
          56 35 19 165 16 35 hintmask 00000000
          hintmask 10111110
          110 707 -48 callsubr
          hintmask 01111010
          189 145 callgsubr
          hintmask 10111010
          -103 callsubr
          endchar
        </CharString>
        <CharString name="underscore">
          -52 -160 96 callsubr
          endchar
        </CharString>
        <CharString name="underscoredbl">
          -52 -250 32 58 96 callsubr
          -122 vmoveto
          280 32 -280 hlineto
          endchar
        </CharString>
        <CharString name="uni00AD">
          60 callgsubr
        </CharString>
        <CharString name="uni00B2">
          -76 318 30 318 30 hstem
          50 31 94 31 vstem
          81 383 rmoveto
          50 4 9 14 11 vhcurveto
          19 -57 callsubr
          30 -125 vlineto
          endchar
        </CharString>
        <CharString name="uni00B3">
          -76 310 30 151 30 145 30 hstemhm
          88 73 11 31 -28 31 hintmask 11100100
          120 310 rmoveto
          61 callsubr
          hintmask 11101000
          -47 callgsubr
          hintmask 11110100
          -45 -30 hlineto
          hintmask 11100100
          24 callgsubr
          -29 vlineto
          131 callgsubr
          endchar
        </CharString>
        <CharString name="uni00B5">
          -31 callgsubr
        </CharString>
        <CharString name="uni00B9">
          -144 688 -20 hstem
          92 31 vstem
          92 318 rmoveto
          31 370 -24 hlineto
          51 callsubr
          endchar
        </CharString>
        <CharString name="uni0162">
          0 131 callsubr
          148 36 vstem
          15 688 rmoveto
          -34 133 -654 114 callgsubr
          6 654 133 34 hlineto
          endchar
        </CharString>
        <CharString name="uni0163">
          -117 75 callgsubr
          hstem
          85 35 vstem
          120 510 rmoveto
          148 -35 -148 -65 -32 65 -478 114 callgsubr
          5 478 75 32 hlineto
          endchar
        </CharString>
        <CharString name="uni018F">
          96 116 callsubr
          20 callgsubr
          206 696 rmoveto
          -42 -42 -6 -6 -27 hvcurveto
          -33 vlineto
          5 25 42 6 30 hhcurveto
          133 16 -33 -264 1 hvcurveto
          -292 -21 hlineto
          -304 18 -48 146 146 18 48 304 308 -26 44 -146 vhcurveto
          8 -670 rmoveto
          -107 -20 15 290 -1 hvcurveto
          256 hlineto
          -290 -1 -20 -15 -107 hhcurveto
          endchar
        </CharString>
        <CharString name="uni019D">
          102 -190 30 160 52 callgsubr
          129 callsubr
          hintmask 10101110
          334 688 rmoveto
          hintmask 11001110
          -595 -4 vlineto
          -222 595 rlineto
          -43 -791 hlineto
          -45 -5 -12 -56 vhcurveto
          -30 vlineto
          66 30 5 92 hvcurveto
          hintmask 10110110
          688 4 vlineto
          222 -595 rlineto
          43 688 hlineto
          endchar
        </CharString>
        <CharString name="uni01C4">
          407 109 callsubr
          551 750 -99 callgsubr
          -419 -883 rmoveto
          -31 callsubr
        </CharString>
        <CharString name="uni01C5">
          373 106 callgsubr
          95 30 19 34 hstemhm
          65 36 220 36 hintmask 00000000
          hintmask 11111100
          541 605 -99 callgsubr
          -409 -738 rmoveto
          -16 callgsubr
          hvcurveto
          hintmask 11011100
          37 callgsubr
          vhcurveto
          -128 hlineto
          36 -654 -49 callgsubr
          240 -34 rmoveto
          -77 callgsubr
          endchar
        </CharString>
        <CharString name="uni01C6">
          352 -8 32 -24 32 446 32 -24 32 87 30 64 callgsubr
          hintmask 00000000
          hintmask 10100110
          7 callgsubr
          hintmask 01010110
          -43 callgsubr
          hintmask 10100110
          81 callgsubr
          vhcurveto
          hintmask 01101110
          326 613 -99 callgsubr
          -27 -738 rmoveto
          -77 callgsubr
          hintmask 10010110
          -226 -4 -66 callgsubr
          endchar
        </CharString>
        <CharString name="uni01C7">
          147 103 callsubr
          65 37 281 36 6 callsubr
          247 -654 -58 callsubr
        </CharString>
        <CharString name="uni01C8">
          125 -190 30 160 34 476 -20 192 61 -55 -20 hstemhm
          65 37 260 35 hintmask 00000000
          hintmask 11110110
          360 35 callgsubr
          -295 -743 rmoveto
          232 34 -195 hlineto
          hintmask 11101110
          654 -37 vlineto
          236 -878 -60 callsubr
        </CharString>
        <CharString name="uni01C9">
          69 callgsubr
          101 callsubr
          153 -61 rmoveto
          39 61 -39 hlineto
          -59 -933 -60 callsubr
        </CharString>
        <CharString name="uni01CA">
          279 0 34 -34 93 502 93 0 -20 129 callsubr
          146 36 hintmask 10011110
          326 hmoveto
          90 callgsubr
          hintmask 01011110
          -595 -4 vlineto
          -222 595 rlineto
          -43 hlineto
          hintmask 10101110
          -688 35 123 callsubr
          340 -561 -58 callsubr
        </CharString>
        <CharString name="uni01CB">
          257 -190 30 160 93 -72 132 callgsubr
          105 93 -6 61 -55 -20 129 callsubr
          125 57 callsubr
          hintmask 1011010111000000
          492 35 callgsubr
          -166 -743 rmoveto
          43 hlineto
          hintmask 1101001111000000
          688 -35 -49 callsubr
          hintmask 1011100111000000
          123 callsubr
          329 -785 -60 callsubr
        </CharString>
        <CharString name="uni01CC">
          209 -190 30 181 130 callsubr
          192 61 hstemhm
          140 callsubr
          116 35 hintmask 11101111
          444 35 callgsubr
          -149 -743 rmoveto
          -54 callsubr
          hintmask 11011111
          -39 callsubr
          hintmask 11101111
          -56 callsubr
          90 -505 rmoveto
          66 30 5 92 hvcurveto
          hintmask 11011111
          603 -35 -613 vlineto
          -45 -5 -12 -56 vhcurveto
          endchar
        </CharString>
        <CharString name="uni01CD">
          -75 callgsubr
          82 30 100 callgsubr
          178 750 -99 callgsubr
          233 -883 -95 callsubr
          hintmask 11101100
          -87 callsubr
          endchar
        </CharString>
        <CharString name="uni01CD.ss01">
          -70 callgsubr
          54 118 callsubr
          190 750 -99 callgsubr
          206 -883 rmoveto
          -106 callsubr
        </CharString>
        <CharString name="uni01CE">
          -75 callsubr
          87 30 49 callsubr
          157 605 -99 callgsubr
          64 -746 -92 callgsubr
        </CharString>
        <CharString name="uni01CF">
          -156 -32 callsubr
          82 30 hstem
          70 36 vstem
          65 750 -99 callgsubr
          72 -883 -5 callsubr
        </CharString>
        <CharString name="uni01D0">
          13 callsubr
          115 30 142 callgsubr
          55 605 -99 callgsubr
          72 -738 -16 callsubr
        </CharString>
        <CharString name="uni01D1">
          96 84 callsubr
          30 20 callgsubr
          191 750 -99 callgsubr
          90 -891 -105 callgsubr
          endchar
        </CharString>
        <CharString name="uni01D2">
          44 81 callsubr
          30 35 callsubr
          165 605 -99 callgsubr
          90 -746 -104 callgsubr
          endchar
        </CharString>
        <CharString name="uni01D3">
          -30 callsubr
          82 118 callsubr
          190 750 -99 callgsubr
          206 -195 rmoveto
          -424 vlineto
          -104 callsubr
          394 vlineto
          endchar
        </CharString>
        <CharString name="uni01D4">
          -41 callsubr
          115 30 36 callsubr
          hintmask 10111100
          170 605 -99 callgsubr
          hintmask 01111100
          196 -738 -48 callgsubr
          hintmask 10111100
          -103 callsubr
          endchar
        </CharString>
        <CharString name="uni01D5">
          -30 callsubr
          146 61 104 36 hstemhm
          60 36 11 41 -16 165 -20 41 11 36 hintmask 1111101010000000
          132 979 -48 callsubr
          hintmask 1111110110000000
          -25 -201 -84 callgsubr
          hintmask 1111101010000000
          52 -187 rmoveto
          -424 vlineto
          -104 callsubr
          394 vlineto
          endchar
        </CharString>
        <CharString name="uni01D6">
          -41 callsubr
          179 61 137 36 hstemhm
          56 35 -4 41 -16 165 -20 41 -7 57 callsubr
          hintmask 1011110101000000
          112 867 -48 callsubr
          hintmask 1011101010000000
          -25 -234 -84 callgsubr
          hintmask 0111110001000000
          42 -730 -48 callgsubr
          hintmask 1011110001000000
          -103 callsubr
          endchar
        </CharString>
        <CharString name="uni01D7">
          -30 callsubr
          146 61 2 138 21 callgsubr
          hintmask 11011001
          201 877 -100 callsubr
          hintmask 11101111
          -94 -68 -84 callgsubr
          hintmask 11101001
          52 -187 rmoveto
          -424 vlineto
          -104 callsubr
          394 vlineto
          endchar
        </CharString>
        <CharString name="uni01D8">
          -41 callsubr
          179 61 35 138 47 callsubr
          180 765 -100 callsubr
          hintmask 1011101100000000
          -93 -101 -84 callgsubr
          hintmask 0111110010000000
          42 -730 -48 callgsubr
          hintmask 1011110010000000
          -103 callsubr
          endchar
        </CharString>
        <CharString name="uni01D9">
          -30 callsubr
          146 61 2 30 21 callgsubr
          hintmask 11011001
          192 877 -99 callgsubr
          hintmask 11101111
          -18 -196 -84 callgsubr
          hintmask 11101001
          52 -187 rmoveto
          -424 vlineto
          -104 callsubr
          394 vlineto
          endchar
        </CharString>
        <CharString name="uni01DA">
          -41 callsubr
          179 61 35 30 47 callsubr
          172 765 -99 callgsubr
          hintmask 1011101100000000
          -18 -229 -84 callgsubr
          hintmask 0111110010000000
          42 -730 -48 callgsubr
          hintmask 1011110010000000
          -103 callsubr
          endchar
        </CharString>
        <CharString name="uni01DB">
          -30 callsubr
          146 61 2 138 21 callgsubr
          hintmask 11011001
          206 877 -85 callgsubr
          hintmask 11101111
          -49 -196 -84 callgsubr
          hintmask 11101001
          52 -187 rmoveto
          -424 vlineto
          -104 callsubr
          394 vlineto
          endchar
        </CharString>
        <CharString name="uni01DC">
          -41 callsubr
          179 61 35 138 47 callsubr
          183 765 -85 callgsubr
          hintmask 1011101100000000
          -46 -229 -84 callgsubr
          hintmask 0111110010000000
          42 -730 -48 callgsubr
          hintmask 1011110010000000
          -103 callsubr
          endchar
        </CharString>
        <CharString name="uni01EA">
          96 -196 32 156 101 callgsubr
          125 34 97 36 vstem
          287 12 callgsubr
          20 25 45 38 64 36 24 hvcurveto
          51 35 8 88 207 vvcurveto
          304 -18 48 -146 -146 -18 -48 -304 -304 18 -48 146 19 17 1 2 15 vhcurveto
          -32 -36 -22 -45 -40 vvcurveto
          -38 21 -32 55 vhcurveto
          -73 222 -69 callgsubr
          endchar
        </CharString>
</ttFont>
